<mxfile host="Electron" modified="2024-04-02T10:39:14.611Z" agent="Mozilla/5.0 (Macintosh; Intel Mac OS X 10_15_7) AppleWebKit/537.36 (KHTML, like Gecko) draw.io/24.1.0 Chrome/120.0.6099.109 Electron/28.1.0 Safari/537.36" etag="G7E5lI4r6KBcGuyQgHRr" version="24.1.0" type="device">
  <diagram name="第 1 页" id="7vJYkFJUccft9cOHBe7Z">
    <mxGraphModel dx="477" dy="337" grid="1" gridSize="10" guides="1" tooltips="1" connect="1" arrows="1" fold="1" page="1" pageScale="1" pageWidth="827" pageHeight="1169" math="0" shadow="0">
      <root>
        <mxCell id="0" />
        <mxCell id="1" parent="0" />
        <mxCell id="aSF58BXrVELDKBnofjXX-2" value="" style="group" vertex="1" connectable="0" parent="1">
          <mxGeometry x="47" y="120" width="700" height="315" as="geometry" />
        </mxCell>
        <mxCell id="OymYbYq-C0z_gjibWfYz-160" value="" style="rounded=0;whiteSpace=wrap;html=1;strokeColor=none;fillColor=#fbe1ce;" parent="aSF58BXrVELDKBnofjXX-2" vertex="1">
          <mxGeometry y="130" width="700" height="165" as="geometry" />
        </mxCell>
        <mxCell id="OymYbYq-C0z_gjibWfYz-2" value="&lt;p style=&quot;text-align: justify; line-height: 120%;&quot;&gt;&lt;font color=&quot;#000000&quot; style=&quot;font-size: 22px;&quot; face=&quot;Garamond&quot;&gt;MLP&lt;/font&gt;&lt;/p&gt;" style="rounded=0;whiteSpace=wrap;html=1;labelBackgroundColor=none;fillColor=#bcdaee;fontColor=#ffffff;strokeColor=#000000;" parent="aSF58BXrVELDKBnofjXX-2" vertex="1">
          <mxGeometry x="10" y="80" width="140" height="40" as="geometry" />
        </mxCell>
        <mxCell id="OymYbYq-C0z_gjibWfYz-5" value="&lt;p style=&quot;text-align: justify; line-height: 120%;&quot;&gt;&lt;font color=&quot;#000000&quot; style=&quot;font-size: 22px;&quot; face=&quot;Garamond&quot;&gt;SVM&lt;/font&gt;&lt;/p&gt;" style="rounded=0;whiteSpace=wrap;html=1;labelBackgroundColor=none;fillColor=#bcdaee;fontColor=#ffffff;strokeColor=#000000;" parent="aSF58BXrVELDKBnofjXX-2" vertex="1">
          <mxGeometry x="180" y="80" width="140" height="40" as="geometry" />
        </mxCell>
        <mxCell id="OymYbYq-C0z_gjibWfYz-6" value="&lt;p style=&quot;text-align: justify; line-height: 120%;&quot;&gt;&lt;font color=&quot;#000000&quot; style=&quot;font-size: 22px;&quot; face=&quot;Garamond&quot;&gt;RF&lt;/font&gt;&lt;/p&gt;" style="rounded=0;whiteSpace=wrap;html=1;labelBackgroundColor=none;fillColor=#bcdaee;fontColor=#ffffff;strokeColor=#000000;" parent="aSF58BXrVELDKBnofjXX-2" vertex="1">
          <mxGeometry x="360" y="80" width="140" height="40" as="geometry" />
        </mxCell>
        <mxCell id="OymYbYq-C0z_gjibWfYz-7" value="&lt;p style=&quot;text-align: justify; line-height: 120%;&quot;&gt;&lt;font color=&quot;#000000&quot; style=&quot;font-size: 22px;&quot; face=&quot;Garamond&quot;&gt;LGBM&lt;/font&gt;&lt;/p&gt;" style="rounded=0;whiteSpace=wrap;html=1;labelBackgroundColor=none;fillColor=#bcdaee;fontColor=#ffffff;strokeColor=#000000;" parent="aSF58BXrVELDKBnofjXX-2" vertex="1">
          <mxGeometry x="550" y="80" width="140" height="40" as="geometry" />
        </mxCell>
        <mxCell id="OymYbYq-C0z_gjibWfYz-28" style="rounded=0;orthogonalLoop=1;jettySize=auto;html=1;exitX=1;exitY=0.5;exitDx=0;exitDy=0;entryX=0;entryY=0.5;entryDx=0;entryDy=0;endSize=1;strokeWidth=0.5;" parent="aSF58BXrVELDKBnofjXX-2" source="OymYbYq-C0z_gjibWfYz-8" target="OymYbYq-C0z_gjibWfYz-21" edge="1">
          <mxGeometry relative="1" as="geometry" />
        </mxCell>
        <mxCell id="OymYbYq-C0z_gjibWfYz-30" style="rounded=0;orthogonalLoop=1;jettySize=auto;html=1;exitX=1;exitY=0.5;exitDx=0;exitDy=0;entryX=0;entryY=0.5;entryDx=0;entryDy=0;endSize=1;strokeWidth=0.5;" parent="aSF58BXrVELDKBnofjXX-2" source="OymYbYq-C0z_gjibWfYz-8" target="OymYbYq-C0z_gjibWfYz-18" edge="1">
          <mxGeometry relative="1" as="geometry" />
        </mxCell>
        <mxCell id="OymYbYq-C0z_gjibWfYz-31" style="rounded=0;orthogonalLoop=1;jettySize=auto;html=1;exitX=1;exitY=0.5;exitDx=0;exitDy=0;entryX=0;entryY=0.5;entryDx=0;entryDy=0;endSize=1;strokeWidth=0.5;" parent="aSF58BXrVELDKBnofjXX-2" source="OymYbYq-C0z_gjibWfYz-8" target="OymYbYq-C0z_gjibWfYz-19" edge="1">
          <mxGeometry relative="1" as="geometry" />
        </mxCell>
        <mxCell id="OymYbYq-C0z_gjibWfYz-33" style="rounded=0;orthogonalLoop=1;jettySize=auto;html=1;exitX=1;exitY=0.5;exitDx=0;exitDy=0;entryX=0;entryY=0.5;entryDx=0;entryDy=0;endSize=1;strokeWidth=0.5;" parent="aSF58BXrVELDKBnofjXX-2" source="OymYbYq-C0z_gjibWfYz-8" target="OymYbYq-C0z_gjibWfYz-20" edge="1">
          <mxGeometry relative="1" as="geometry" />
        </mxCell>
        <mxCell id="OymYbYq-C0z_gjibWfYz-8" value="" style="ellipse;whiteSpace=wrap;html=1;aspect=fixed;strokeColor=none;fillColor=#F9BE00;" parent="aSF58BXrVELDKBnofjXX-2" vertex="1">
          <mxGeometry x="20" y="150" width="15" height="15" as="geometry" />
        </mxCell>
        <mxCell id="OymYbYq-C0z_gjibWfYz-24" style="edgeStyle=orthogonalEdgeStyle;rounded=1;orthogonalLoop=1;jettySize=auto;html=1;exitX=1;exitY=0.5;exitDx=0;exitDy=0;entryX=0;entryY=0.5;entryDx=0;entryDy=0;endSize=1;startSize=3;curved=0;strokeWidth=0.5;" parent="aSF58BXrVELDKBnofjXX-2" source="OymYbYq-C0z_gjibWfYz-9" target="OymYbYq-C0z_gjibWfYz-18" edge="1">
          <mxGeometry relative="1" as="geometry" />
        </mxCell>
        <mxCell id="OymYbYq-C0z_gjibWfYz-34" style="rounded=0;orthogonalLoop=1;jettySize=auto;html=1;exitX=1;exitY=0.5;exitDx=0;exitDy=0;entryX=0;entryY=0.5;entryDx=0;entryDy=0;endSize=1;strokeWidth=0.5;" parent="aSF58BXrVELDKBnofjXX-2" source="OymYbYq-C0z_gjibWfYz-9" target="OymYbYq-C0z_gjibWfYz-19" edge="1">
          <mxGeometry relative="1" as="geometry" />
        </mxCell>
        <mxCell id="OymYbYq-C0z_gjibWfYz-35" style="rounded=0;orthogonalLoop=1;jettySize=auto;html=1;exitX=1;exitY=0.5;exitDx=0;exitDy=0;entryX=0;entryY=0.5;entryDx=0;entryDy=0;endSize=1;strokeWidth=0.5;" parent="aSF58BXrVELDKBnofjXX-2" source="OymYbYq-C0z_gjibWfYz-9" target="OymYbYq-C0z_gjibWfYz-20" edge="1">
          <mxGeometry relative="1" as="geometry" />
        </mxCell>
        <mxCell id="OymYbYq-C0z_gjibWfYz-36" style="rounded=0;orthogonalLoop=1;jettySize=auto;html=1;exitX=1;exitY=0.5;exitDx=0;exitDy=0;entryX=0;entryY=0.5;entryDx=0;entryDy=0;endSize=1;strokeWidth=0.5;" parent="aSF58BXrVELDKBnofjXX-2" source="OymYbYq-C0z_gjibWfYz-9" target="OymYbYq-C0z_gjibWfYz-21" edge="1">
          <mxGeometry relative="1" as="geometry" />
        </mxCell>
        <mxCell id="OymYbYq-C0z_gjibWfYz-9" value="" style="ellipse;whiteSpace=wrap;html=1;aspect=fixed;strokeColor=none;fillColor=#F9BE00;" parent="aSF58BXrVELDKBnofjXX-2" vertex="1">
          <mxGeometry x="20" y="170" width="15" height="15" as="geometry" />
        </mxCell>
        <mxCell id="OymYbYq-C0z_gjibWfYz-25" style="rounded=0;orthogonalLoop=1;jettySize=auto;html=1;exitX=1;exitY=0.5;exitDx=0;exitDy=0;entryX=0;entryY=0.5;entryDx=0;entryDy=0;endSize=1;strokeWidth=0.5;" parent="aSF58BXrVELDKBnofjXX-2" source="OymYbYq-C0z_gjibWfYz-10" target="OymYbYq-C0z_gjibWfYz-19" edge="1">
          <mxGeometry relative="1" as="geometry">
            <mxPoint x="70" y="198" as="targetPoint" />
          </mxGeometry>
        </mxCell>
        <mxCell id="OymYbYq-C0z_gjibWfYz-37" style="rounded=0;orthogonalLoop=1;jettySize=auto;html=1;exitX=1;exitY=0.5;exitDx=0;exitDy=0;entryX=0;entryY=0.5;entryDx=0;entryDy=0;strokeWidth=0.5;endSize=0;" parent="aSF58BXrVELDKBnofjXX-2" source="OymYbYq-C0z_gjibWfYz-10" target="OymYbYq-C0z_gjibWfYz-18" edge="1">
          <mxGeometry relative="1" as="geometry" />
        </mxCell>
        <mxCell id="OymYbYq-C0z_gjibWfYz-38" style="rounded=0;orthogonalLoop=1;jettySize=auto;html=1;exitX=1;exitY=0.5;exitDx=0;exitDy=0;entryX=0;entryY=0.5;entryDx=0;entryDy=0;endSize=0;strokeWidth=0.5;" parent="aSF58BXrVELDKBnofjXX-2" source="OymYbYq-C0z_gjibWfYz-10" target="OymYbYq-C0z_gjibWfYz-20" edge="1">
          <mxGeometry relative="1" as="geometry" />
        </mxCell>
        <mxCell id="OymYbYq-C0z_gjibWfYz-39" style="rounded=0;orthogonalLoop=1;jettySize=auto;html=1;exitX=1;exitY=0.5;exitDx=0;exitDy=0;entryX=0;entryY=0.5;entryDx=0;entryDy=0;endSize=1;strokeWidth=0.5;" parent="aSF58BXrVELDKBnofjXX-2" source="OymYbYq-C0z_gjibWfYz-10" target="OymYbYq-C0z_gjibWfYz-21" edge="1">
          <mxGeometry relative="1" as="geometry" />
        </mxCell>
        <mxCell id="OymYbYq-C0z_gjibWfYz-10" value="" style="ellipse;whiteSpace=wrap;html=1;aspect=fixed;strokeColor=none;fillColor=#F9BE00;" parent="aSF58BXrVELDKBnofjXX-2" vertex="1">
          <mxGeometry x="20" y="190" width="15" height="15" as="geometry" />
        </mxCell>
        <mxCell id="OymYbYq-C0z_gjibWfYz-26" style="rounded=0;orthogonalLoop=1;jettySize=auto;html=1;exitX=1;exitY=0.5;exitDx=0;exitDy=0;entryX=0;entryY=0.5;entryDx=0;entryDy=0;endSize=1;strokeWidth=0.5;" parent="aSF58BXrVELDKBnofjXX-2" source="OymYbYq-C0z_gjibWfYz-11" target="OymYbYq-C0z_gjibWfYz-20" edge="1">
          <mxGeometry relative="1" as="geometry" />
        </mxCell>
        <mxCell id="OymYbYq-C0z_gjibWfYz-40" style="rounded=0;orthogonalLoop=1;jettySize=auto;html=1;exitX=1;exitY=0.5;exitDx=0;exitDy=0;entryX=0;entryY=0.5;entryDx=0;entryDy=0;endSize=1;strokeWidth=0.5;" parent="aSF58BXrVELDKBnofjXX-2" source="OymYbYq-C0z_gjibWfYz-11" target="OymYbYq-C0z_gjibWfYz-18" edge="1">
          <mxGeometry relative="1" as="geometry" />
        </mxCell>
        <mxCell id="OymYbYq-C0z_gjibWfYz-41" style="rounded=0;orthogonalLoop=1;jettySize=auto;html=1;exitX=1;exitY=0.5;exitDx=0;exitDy=0;entryX=0;entryY=0.5;entryDx=0;entryDy=0;endSize=1;strokeWidth=0.5;" parent="aSF58BXrVELDKBnofjXX-2" source="OymYbYq-C0z_gjibWfYz-11" target="OymYbYq-C0z_gjibWfYz-19" edge="1">
          <mxGeometry relative="1" as="geometry" />
        </mxCell>
        <mxCell id="OymYbYq-C0z_gjibWfYz-42" style="rounded=0;orthogonalLoop=1;jettySize=auto;html=1;exitX=1;exitY=0.5;exitDx=0;exitDy=0;entryX=0;entryY=0.5;entryDx=0;entryDy=0;endSize=1;strokeWidth=0.5;" parent="aSF58BXrVELDKBnofjXX-2" source="OymYbYq-C0z_gjibWfYz-11" target="OymYbYq-C0z_gjibWfYz-21" edge="1">
          <mxGeometry relative="1" as="geometry" />
        </mxCell>
        <mxCell id="OymYbYq-C0z_gjibWfYz-11" value="" style="ellipse;whiteSpace=wrap;html=1;aspect=fixed;strokeColor=none;fillColor=#F9BE00;" parent="aSF58BXrVELDKBnofjXX-2" vertex="1">
          <mxGeometry x="20" y="210" width="15" height="15" as="geometry" />
        </mxCell>
        <mxCell id="OymYbYq-C0z_gjibWfYz-27" style="edgeStyle=orthogonalEdgeStyle;rounded=0;orthogonalLoop=1;jettySize=auto;html=1;exitX=1;exitY=0.5;exitDx=0;exitDy=0;entryX=0;entryY=0.5;entryDx=0;entryDy=0;endSize=1;strokeWidth=0.5;" parent="aSF58BXrVELDKBnofjXX-2" source="OymYbYq-C0z_gjibWfYz-12" target="OymYbYq-C0z_gjibWfYz-21" edge="1">
          <mxGeometry relative="1" as="geometry" />
        </mxCell>
        <mxCell id="OymYbYq-C0z_gjibWfYz-43" style="rounded=0;orthogonalLoop=1;jettySize=auto;html=1;exitX=1;exitY=0.5;exitDx=0;exitDy=0;entryX=0;entryY=0.5;entryDx=0;entryDy=0;strokeWidth=0.5;endSize=1;" parent="aSF58BXrVELDKBnofjXX-2" source="OymYbYq-C0z_gjibWfYz-12" target="OymYbYq-C0z_gjibWfYz-18" edge="1">
          <mxGeometry relative="1" as="geometry" />
        </mxCell>
        <mxCell id="OymYbYq-C0z_gjibWfYz-44" style="rounded=0;orthogonalLoop=1;jettySize=auto;html=1;exitX=1;exitY=0.5;exitDx=0;exitDy=0;entryX=0;entryY=0.5;entryDx=0;entryDy=0;endSize=1;strokeWidth=0.5;" parent="aSF58BXrVELDKBnofjXX-2" source="OymYbYq-C0z_gjibWfYz-12" target="OymYbYq-C0z_gjibWfYz-19" edge="1">
          <mxGeometry relative="1" as="geometry" />
        </mxCell>
        <mxCell id="OymYbYq-C0z_gjibWfYz-45" style="rounded=0;orthogonalLoop=1;jettySize=auto;html=1;exitX=1;exitY=0.5;exitDx=0;exitDy=0;entryX=0;entryY=0.5;entryDx=0;entryDy=0;strokeWidth=0.5;endSize=1;" parent="aSF58BXrVELDKBnofjXX-2" source="OymYbYq-C0z_gjibWfYz-12" target="OymYbYq-C0z_gjibWfYz-20" edge="1">
          <mxGeometry relative="1" as="geometry" />
        </mxCell>
        <mxCell id="OymYbYq-C0z_gjibWfYz-12" value="" style="ellipse;whiteSpace=wrap;html=1;aspect=fixed;strokeColor=none;fillColor=#F9BE00;" parent="aSF58BXrVELDKBnofjXX-2" vertex="1">
          <mxGeometry x="20" y="230" width="15" height="15" as="geometry" />
        </mxCell>
        <mxCell id="OymYbYq-C0z_gjibWfYz-29" style="rounded=0;orthogonalLoop=1;jettySize=auto;html=1;exitX=1;exitY=0.5;exitDx=0;exitDy=0;entryX=0;entryY=0.5;entryDx=0;entryDy=0;endSize=1;strokeWidth=0.5;" parent="aSF58BXrVELDKBnofjXX-2" source="OymYbYq-C0z_gjibWfYz-13" target="OymYbYq-C0z_gjibWfYz-18" edge="1">
          <mxGeometry relative="1" as="geometry" />
        </mxCell>
        <mxCell id="OymYbYq-C0z_gjibWfYz-46" style="rounded=0;orthogonalLoop=1;jettySize=auto;html=1;exitX=1;exitY=0.5;exitDx=0;exitDy=0;entryX=0;entryY=0.5;entryDx=0;entryDy=0;strokeWidth=0.5;endSize=1;" parent="aSF58BXrVELDKBnofjXX-2" source="OymYbYq-C0z_gjibWfYz-13" target="OymYbYq-C0z_gjibWfYz-19" edge="1">
          <mxGeometry relative="1" as="geometry" />
        </mxCell>
        <mxCell id="OymYbYq-C0z_gjibWfYz-47" style="rounded=0;orthogonalLoop=1;jettySize=auto;html=1;exitX=1;exitY=0.5;exitDx=0;exitDy=0;entryX=0;entryY=0.5;entryDx=0;entryDy=0;strokeWidth=0.5;endSize=1;" parent="aSF58BXrVELDKBnofjXX-2" source="OymYbYq-C0z_gjibWfYz-13" target="OymYbYq-C0z_gjibWfYz-20" edge="1">
          <mxGeometry relative="1" as="geometry" />
        </mxCell>
        <mxCell id="OymYbYq-C0z_gjibWfYz-48" style="rounded=0;orthogonalLoop=1;jettySize=auto;html=1;exitX=1;exitY=0.5;exitDx=0;exitDy=0;entryX=0;entryY=0.5;entryDx=0;entryDy=0;strokeWidth=0.5;endSize=1;" parent="aSF58BXrVELDKBnofjXX-2" source="OymYbYq-C0z_gjibWfYz-13" target="OymYbYq-C0z_gjibWfYz-21" edge="1">
          <mxGeometry relative="1" as="geometry" />
        </mxCell>
        <mxCell id="OymYbYq-C0z_gjibWfYz-13" value="" style="ellipse;whiteSpace=wrap;html=1;aspect=fixed;strokeColor=none;fillColor=#F9BE00;" parent="aSF58BXrVELDKBnofjXX-2" vertex="1">
          <mxGeometry x="20" y="251" width="15" height="15" as="geometry" />
        </mxCell>
        <mxCell id="OymYbYq-C0z_gjibWfYz-49" style="rounded=0;orthogonalLoop=1;jettySize=auto;html=1;exitX=1;exitY=0.5;exitDx=0;exitDy=0;entryX=0;entryY=0.5;entryDx=0;entryDy=0;endSize=1;strokeWidth=0.5;" parent="aSF58BXrVELDKBnofjXX-2" source="OymYbYq-C0z_gjibWfYz-18" target="OymYbYq-C0z_gjibWfYz-22" edge="1">
          <mxGeometry relative="1" as="geometry" />
        </mxCell>
        <mxCell id="OymYbYq-C0z_gjibWfYz-18" value="" style="ellipse;whiteSpace=wrap;html=1;aspect=fixed;strokeColor=none;fillColor=#6cad45;" parent="aSF58BXrVELDKBnofjXX-2" vertex="1">
          <mxGeometry x="72" y="170" width="15" height="15" as="geometry" />
        </mxCell>
        <mxCell id="OymYbYq-C0z_gjibWfYz-50" style="rounded=0;orthogonalLoop=1;jettySize=auto;html=1;exitX=1;exitY=0.5;exitDx=0;exitDy=0;endSize=1;strokeWidth=0.5;entryX=0;entryY=0.5;entryDx=0;entryDy=0;" parent="aSF58BXrVELDKBnofjXX-2" source="OymYbYq-C0z_gjibWfYz-19" target="OymYbYq-C0z_gjibWfYz-22" edge="1">
          <mxGeometry relative="1" as="geometry" />
        </mxCell>
        <mxCell id="OymYbYq-C0z_gjibWfYz-19" value="" style="ellipse;whiteSpace=wrap;html=1;aspect=fixed;strokeColor=none;fillColor=#6cad45;" parent="aSF58BXrVELDKBnofjXX-2" vertex="1">
          <mxGeometry x="72" y="190" width="15" height="15" as="geometry" />
        </mxCell>
        <mxCell id="OymYbYq-C0z_gjibWfYz-51" style="rounded=0;orthogonalLoop=1;jettySize=auto;html=1;exitX=1;exitY=0.5;exitDx=0;exitDy=0;entryX=0;entryY=0.5;entryDx=0;entryDy=0;endSize=1;strokeWidth=0.5;" parent="aSF58BXrVELDKBnofjXX-2" source="OymYbYq-C0z_gjibWfYz-20" target="OymYbYq-C0z_gjibWfYz-22" edge="1">
          <mxGeometry relative="1" as="geometry" />
        </mxCell>
        <mxCell id="OymYbYq-C0z_gjibWfYz-20" value="" style="ellipse;whiteSpace=wrap;html=1;aspect=fixed;strokeColor=none;fillColor=#6cad45;" parent="aSF58BXrVELDKBnofjXX-2" vertex="1">
          <mxGeometry x="72" y="210" width="15" height="15" as="geometry" />
        </mxCell>
        <mxCell id="OymYbYq-C0z_gjibWfYz-52" style="rounded=0;orthogonalLoop=1;jettySize=auto;html=1;exitX=1;exitY=0.5;exitDx=0;exitDy=0;entryX=0;entryY=0.5;entryDx=0;entryDy=0;endSize=1;strokeWidth=0.5;" parent="aSF58BXrVELDKBnofjXX-2" source="OymYbYq-C0z_gjibWfYz-21" target="OymYbYq-C0z_gjibWfYz-22" edge="1">
          <mxGeometry relative="1" as="geometry" />
        </mxCell>
        <mxCell id="OymYbYq-C0z_gjibWfYz-21" value="" style="ellipse;whiteSpace=wrap;html=1;aspect=fixed;strokeColor=none;fillColor=#6cad45;" parent="aSF58BXrVELDKBnofjXX-2" vertex="1">
          <mxGeometry x="72" y="230" width="15" height="15" as="geometry" />
        </mxCell>
        <mxCell id="OymYbYq-C0z_gjibWfYz-22" value="" style="ellipse;whiteSpace=wrap;html=1;aspect=fixed;strokeColor=none;fillColor=#f47a34;" parent="aSF58BXrVELDKBnofjXX-2" vertex="1">
          <mxGeometry x="115" y="200" width="15" height="15" as="geometry" />
        </mxCell>
        <mxCell id="OymYbYq-C0z_gjibWfYz-65" style="rounded=0;orthogonalLoop=1;jettySize=auto;html=1;exitX=0;exitY=0;exitDx=0;exitDy=0;entryX=1;entryY=1;entryDx=0;entryDy=0;dashed=1;endSize=0;startSize=0;jumpSize=0;endArrow=none;endFill=0;strokeColor=#f47a34;curved=1;" parent="aSF58BXrVELDKBnofjXX-2" source="OymYbYq-C0z_gjibWfYz-56" target="OymYbYq-C0z_gjibWfYz-54" edge="1">
          <mxGeometry relative="1" as="geometry">
            <Array as="points">
              <mxPoint x="193" y="212" />
            </Array>
          </mxGeometry>
        </mxCell>
        <mxCell id="OymYbYq-C0z_gjibWfYz-71" style="rounded=0;orthogonalLoop=1;jettySize=auto;html=1;exitX=0;exitY=0;exitDx=0;exitDy=0;dashed=1;curved=1;endArrow=none;endFill=0;strokeColor=#f47a34;entryX=0;entryY=0;entryDx=0;entryDy=0;" parent="aSF58BXrVELDKBnofjXX-2" target="OymYbYq-C0z_gjibWfYz-54" edge="1">
          <mxGeometry relative="1" as="geometry">
            <mxPoint x="173" y="182" as="sourcePoint" />
          </mxGeometry>
        </mxCell>
        <mxCell id="OymYbYq-C0z_gjibWfYz-54" value="" style="ellipse;whiteSpace=wrap;html=1;aspect=fixed;strokeColor=none;fillColor=#f47a34;direction=south;" parent="aSF58BXrVELDKBnofjXX-2" vertex="1">
          <mxGeometry x="183" y="192" width="10" height="10" as="geometry" />
        </mxCell>
        <mxCell id="OymYbYq-C0z_gjibWfYz-55" value="" style="ellipse;whiteSpace=wrap;html=1;aspect=fixed;strokeColor=none;fillColor=#f47a34;direction=south;" parent="aSF58BXrVELDKBnofjXX-2" vertex="1">
          <mxGeometry x="181" y="215" width="10" height="10" as="geometry" />
        </mxCell>
        <mxCell id="OymYbYq-C0z_gjibWfYz-67" style="edgeStyle=orthogonalEdgeStyle;rounded=0;orthogonalLoop=1;jettySize=auto;html=1;exitX=0.5;exitY=0;exitDx=0;exitDy=0;entryX=1;entryY=1;entryDx=0;entryDy=0;dashed=1;endArrow=none;endFill=0;curved=1;strokeColor=#f47a34;" parent="aSF58BXrVELDKBnofjXX-2" source="OymYbYq-C0z_gjibWfYz-61" target="OymYbYq-C0z_gjibWfYz-56" edge="1">
          <mxGeometry relative="1" as="geometry">
            <Array as="points">
              <mxPoint x="235" y="242" />
              <mxPoint x="213" y="242" />
              <mxPoint x="213" y="216" />
              <mxPoint x="211" y="216" />
            </Array>
          </mxGeometry>
        </mxCell>
        <mxCell id="OymYbYq-C0z_gjibWfYz-56" value="" style="ellipse;whiteSpace=wrap;html=1;aspect=fixed;strokeColor=none;fillColor=#f47a34;direction=south;" parent="aSF58BXrVELDKBnofjXX-2" vertex="1">
          <mxGeometry x="203" y="213" width="10" height="10" as="geometry" />
        </mxCell>
        <mxCell id="OymYbYq-C0z_gjibWfYz-57" value="" style="ellipse;whiteSpace=wrap;html=1;aspect=fixed;strokeColor=none;fillColor=#f47a34;direction=west;rotation=105;" parent="aSF58BXrVELDKBnofjXX-2" vertex="1">
          <mxGeometry x="183" y="233" width="10" height="10" as="geometry" />
        </mxCell>
        <mxCell id="OymYbYq-C0z_gjibWfYz-58" value="" style="ellipse;whiteSpace=wrap;html=1;aspect=fixed;strokeColor=none;fillColor=#f47a34;direction=south;" parent="aSF58BXrVELDKBnofjXX-2" vertex="1">
          <mxGeometry x="173" y="253" width="10" height="10" as="geometry" />
        </mxCell>
        <mxCell id="OymYbYq-C0z_gjibWfYz-59" value="" style="ellipse;whiteSpace=wrap;html=1;aspect=fixed;strokeColor=none;fillColor=#f47a34;direction=south;" parent="aSF58BXrVELDKBnofjXX-2" vertex="1">
          <mxGeometry x="203" y="247" width="10" height="10" as="geometry" />
        </mxCell>
        <mxCell id="OymYbYq-C0z_gjibWfYz-72" style="rounded=0;orthogonalLoop=1;jettySize=auto;html=1;dashed=1;endArrow=none;endFill=0;curved=1;strokeColor=#f47a34;entryX=1;entryY=1;entryDx=0;entryDy=0;" parent="aSF58BXrVELDKBnofjXX-2" target="OymYbYq-C0z_gjibWfYz-60" edge="1">
          <mxGeometry relative="1" as="geometry">
            <mxPoint x="270" y="280" as="sourcePoint" />
            <Array as="points">
              <mxPoint x="270" y="280" />
            </Array>
          </mxGeometry>
        </mxCell>
        <mxCell id="OymYbYq-C0z_gjibWfYz-60" value="" style="ellipse;whiteSpace=wrap;html=1;aspect=fixed;strokeColor=none;fillColor=#f47a34;direction=south;" parent="aSF58BXrVELDKBnofjXX-2" vertex="1">
          <mxGeometry x="245" y="263" width="10" height="10" as="geometry" />
        </mxCell>
        <mxCell id="OymYbYq-C0z_gjibWfYz-68" style="rounded=0;orthogonalLoop=1;jettySize=auto;html=1;exitX=0;exitY=0;exitDx=0;exitDy=0;entryX=1;entryY=1;entryDx=0;entryDy=0;endArrow=none;endFill=0;curved=1;strokeColor=#f47a34;dashed=1;" parent="aSF58BXrVELDKBnofjXX-2" source="OymYbYq-C0z_gjibWfYz-60" target="OymYbYq-C0z_gjibWfYz-61" edge="1">
          <mxGeometry relative="1" as="geometry">
            <Array as="points">
              <mxPoint x="240" y="264" />
              <mxPoint x="230" y="260" />
            </Array>
          </mxGeometry>
        </mxCell>
        <mxCell id="OymYbYq-C0z_gjibWfYz-61" value="" style="ellipse;whiteSpace=wrap;html=1;aspect=fixed;strokeColor=none;fillColor=#f47a34;direction=south;" parent="aSF58BXrVELDKBnofjXX-2" vertex="1">
          <mxGeometry x="228" y="241" width="10" height="10" as="geometry" />
        </mxCell>
        <mxCell id="OymYbYq-C0z_gjibWfYz-74" style="rounded=0;orthogonalLoop=1;jettySize=auto;html=1;exitX=1;exitY=1;exitDx=0;exitDy=0;entryX=0;entryY=0;entryDx=0;entryDy=0;dashed=1;endSize=0;startSize=0;jumpSize=0;endArrow=none;endFill=0;strokeColor=#6cad45;curved=1;" parent="aSF58BXrVELDKBnofjXX-2" source="OymYbYq-C0z_gjibWfYz-76" target="OymYbYq-C0z_gjibWfYz-79" edge="1">
          <mxGeometry relative="1" as="geometry">
            <Array as="points">
              <mxPoint x="239" y="182" />
            </Array>
          </mxGeometry>
        </mxCell>
        <mxCell id="OymYbYq-C0z_gjibWfYz-75" style="rounded=0;orthogonalLoop=1;jettySize=auto;html=1;exitX=0;exitY=0;exitDx=0;exitDy=0;dashed=1;curved=1;endArrow=none;endFill=0;strokeColor=#6cad45;entryX=0;entryY=0;entryDx=0;entryDy=0;" parent="aSF58BXrVELDKBnofjXX-2" source="OymYbYq-C0z_gjibWfYz-76" edge="1">
          <mxGeometry relative="1" as="geometry">
            <mxPoint x="213" y="157" as="targetPoint" />
          </mxGeometry>
        </mxCell>
        <mxCell id="OymYbYq-C0z_gjibWfYz-76" value="" style="ellipse;whiteSpace=wrap;html=1;aspect=fixed;strokeColor=#6cad45;fillColor=#6cad45;direction=west;" parent="aSF58BXrVELDKBnofjXX-2" vertex="1">
          <mxGeometry x="229" y="162" width="10" height="10" as="geometry" />
        </mxCell>
        <mxCell id="OymYbYq-C0z_gjibWfYz-77" value="" style="ellipse;whiteSpace=wrap;html=1;aspect=fixed;strokeColor=#6cad45;fillColor=#6cad45;direction=west;" parent="aSF58BXrVELDKBnofjXX-2" vertex="1">
          <mxGeometry x="238" y="145" width="10" height="10" as="geometry" />
        </mxCell>
        <mxCell id="OymYbYq-C0z_gjibWfYz-78" style="edgeStyle=orthogonalEdgeStyle;rounded=0;orthogonalLoop=1;jettySize=auto;html=1;exitX=1;exitY=1;exitDx=0;exitDy=0;entryX=0.5;entryY=0;entryDx=0;entryDy=0;dashed=1;endArrow=none;endFill=0;curved=1;strokeColor=#6cad45;" parent="aSF58BXrVELDKBnofjXX-2" source="OymYbYq-C0z_gjibWfYz-79" target="OymYbYq-C0z_gjibWfYz-86" edge="1">
          <mxGeometry relative="1" as="geometry">
            <Array as="points">
              <mxPoint x="257" y="186" />
              <mxPoint x="259" y="186" />
              <mxPoint x="259" y="212" />
              <mxPoint x="281" y="212" />
            </Array>
          </mxGeometry>
        </mxCell>
        <mxCell id="OymYbYq-C0z_gjibWfYz-79" value="" style="ellipse;whiteSpace=wrap;html=1;aspect=fixed;strokeColor=#6cad45;fillColor=#6cad45;direction=west;" parent="aSF58BXrVELDKBnofjXX-2" vertex="1">
          <mxGeometry x="249" y="183" width="10" height="10" as="geometry" />
        </mxCell>
        <mxCell id="OymYbYq-C0z_gjibWfYz-80" value="" style="ellipse;whiteSpace=wrap;html=1;aspect=fixed;strokeColor=#6cad45;fillColor=#6cad45;direction=north;rotation=105;" parent="aSF58BXrVELDKBnofjXX-2" vertex="1">
          <mxGeometry x="248" y="160" width="10" height="10" as="geometry" />
        </mxCell>
        <mxCell id="OymYbYq-C0z_gjibWfYz-81" value="" style="ellipse;whiteSpace=wrap;html=1;aspect=fixed;strokeColor=#6cad45;fillColor=#6cad45;direction=west;" parent="aSF58BXrVELDKBnofjXX-2" vertex="1">
          <mxGeometry x="271" y="197.5" width="10" height="10" as="geometry" />
        </mxCell>
        <mxCell id="OymYbYq-C0z_gjibWfYz-82" value="" style="ellipse;whiteSpace=wrap;html=1;aspect=fixed;strokeColor=#6cad45;fillColor=#6cad45;direction=west;" parent="aSF58BXrVELDKBnofjXX-2" vertex="1">
          <mxGeometry x="297" y="213" width="10" height="10" as="geometry" />
        </mxCell>
        <mxCell id="OymYbYq-C0z_gjibWfYz-83" style="rounded=0;orthogonalLoop=1;jettySize=auto;html=1;exitX=1;exitY=1;exitDx=0;exitDy=0;dashed=1;endArrow=none;endFill=0;curved=1;strokeColor=#6cad45;" parent="aSF58BXrVELDKBnofjXX-2" edge="1">
          <mxGeometry relative="1" as="geometry">
            <mxPoint x="287.46446609406735" y="239.46446609406723" as="sourcePoint" />
            <mxPoint x="326" y="255" as="targetPoint" />
            <Array as="points">
              <mxPoint x="306" y="265" />
            </Array>
          </mxGeometry>
        </mxCell>
        <mxCell id="OymYbYq-C0z_gjibWfYz-84" value="" style="ellipse;whiteSpace=wrap;html=1;aspect=fixed;strokeColor=#6cad45;fillColor=#6cad45;direction=west;" parent="aSF58BXrVELDKBnofjXX-2" vertex="1">
          <mxGeometry x="287" y="238" width="10" height="10" as="geometry" />
        </mxCell>
        <mxCell id="OymYbYq-C0z_gjibWfYz-85" style="rounded=0;orthogonalLoop=1;jettySize=auto;html=1;exitX=1;exitY=1;exitDx=0;exitDy=0;entryX=0;entryY=0;entryDx=0;entryDy=0;endArrow=none;endFill=0;curved=1;strokeColor=#6cad45;dashed=1;" parent="aSF58BXrVELDKBnofjXX-2" source="OymYbYq-C0z_gjibWfYz-86" edge="1">
          <mxGeometry relative="1" as="geometry">
            <Array as="points">
              <mxPoint x="269" y="242" />
            </Array>
            <mxPoint x="294.53553390593277" y="246.53553390593265" as="targetPoint" />
          </mxGeometry>
        </mxCell>
        <mxCell id="OymYbYq-C0z_gjibWfYz-86" value="" style="ellipse;whiteSpace=wrap;html=1;aspect=fixed;strokeColor=#6cad45;fillColor=#6cad45;direction=west;" parent="aSF58BXrVELDKBnofjXX-2" vertex="1">
          <mxGeometry x="276" y="218" width="10" height="10" as="geometry" />
        </mxCell>
        <mxCell id="OymYbYq-C0z_gjibWfYz-101" value="" style="ellipse;whiteSpace=wrap;html=1;aspect=fixed;strokeColor=#6cad45;fillColor=#6cad45;direction=west;" parent="aSF58BXrVELDKBnofjXX-2" vertex="1">
          <mxGeometry x="316" y="203" width="10" height="10" as="geometry" />
        </mxCell>
        <mxCell id="OymYbYq-C0z_gjibWfYz-105" value="" style="curved=1;endArrow=none;html=1;rounded=0;endFill=0;" parent="aSF58BXrVELDKBnofjXX-2" edge="1">
          <mxGeometry width="50" height="50" relative="1" as="geometry">
            <mxPoint x="190" y="160" as="sourcePoint" />
            <mxPoint x="290" y="270" as="targetPoint" />
            <Array as="points">
              <mxPoint x="225" y="175.5" />
              <mxPoint x="220" y="202.5" />
              <mxPoint x="240" y="220" />
              <mxPoint x="260" y="230" />
              <mxPoint x="260" y="262.5" />
            </Array>
          </mxGeometry>
        </mxCell>
        <mxCell id="OymYbYq-C0z_gjibWfYz-119" style="rounded=0;orthogonalLoop=1;jettySize=auto;html=1;exitX=0.5;exitY=1;exitDx=0;exitDy=0;entryX=1;entryY=0;entryDx=0;entryDy=0;endSize=1;strokeWidth=0.5;" parent="aSF58BXrVELDKBnofjXX-2" source="OymYbYq-C0z_gjibWfYz-106" target="OymYbYq-C0z_gjibWfYz-108" edge="1">
          <mxGeometry relative="1" as="geometry" />
        </mxCell>
        <mxCell id="OymYbYq-C0z_gjibWfYz-120" style="rounded=0;orthogonalLoop=1;jettySize=auto;html=1;exitX=0.5;exitY=1;exitDx=0;exitDy=0;entryX=0;entryY=0;entryDx=0;entryDy=0;strokeWidth=0.5;endSize=1;" parent="aSF58BXrVELDKBnofjXX-2" source="OymYbYq-C0z_gjibWfYz-106" target="OymYbYq-C0z_gjibWfYz-107" edge="1">
          <mxGeometry relative="1" as="geometry" />
        </mxCell>
        <mxCell id="OymYbYq-C0z_gjibWfYz-106" value="" style="ellipse;whiteSpace=wrap;html=1;aspect=fixed;strokeColor=none;fillColor=#F9BE00;" parent="aSF58BXrVELDKBnofjXX-2" vertex="1">
          <mxGeometry x="408" y="147" width="20" height="20" as="geometry" />
        </mxCell>
        <mxCell id="OymYbYq-C0z_gjibWfYz-123" style="rounded=0;orthogonalLoop=1;jettySize=auto;html=1;exitX=0.5;exitY=1;exitDx=0;exitDy=0;entryX=0.5;entryY=0;entryDx=0;entryDy=0;endSize=1;strokeWidth=0.5;" parent="aSF58BXrVELDKBnofjXX-2" source="OymYbYq-C0z_gjibWfYz-107" target="OymYbYq-C0z_gjibWfYz-112" edge="1">
          <mxGeometry relative="1" as="geometry" />
        </mxCell>
        <mxCell id="OymYbYq-C0z_gjibWfYz-124" style="rounded=0;orthogonalLoop=1;jettySize=auto;html=1;exitX=0.5;exitY=1;exitDx=0;exitDy=0;entryX=0.5;entryY=0;entryDx=0;entryDy=0;endSize=1;strokeWidth=0.5;" parent="aSF58BXrVELDKBnofjXX-2" source="OymYbYq-C0z_gjibWfYz-107" target="OymYbYq-C0z_gjibWfYz-111" edge="1">
          <mxGeometry relative="1" as="geometry" />
        </mxCell>
        <mxCell id="OymYbYq-C0z_gjibWfYz-107" value="" style="ellipse;whiteSpace=wrap;html=1;aspect=fixed;strokeColor=none;fillColor=#6cad45;" parent="aSF58BXrVELDKBnofjXX-2" vertex="1">
          <mxGeometry x="438" y="182" width="20" height="20" as="geometry" />
        </mxCell>
        <mxCell id="OymYbYq-C0z_gjibWfYz-121" style="rounded=0;orthogonalLoop=1;jettySize=auto;html=1;entryX=0.5;entryY=0;entryDx=0;entryDy=0;endSize=1;strokeWidth=0.5;exitX=0.5;exitY=1;exitDx=0;exitDy=0;" parent="aSF58BXrVELDKBnofjXX-2" source="OymYbYq-C0z_gjibWfYz-108" target="OymYbYq-C0z_gjibWfYz-109" edge="1">
          <mxGeometry relative="1" as="geometry">
            <mxPoint x="390" y="188" as="sourcePoint" />
          </mxGeometry>
        </mxCell>
        <mxCell id="OymYbYq-C0z_gjibWfYz-122" style="rounded=0;orthogonalLoop=1;jettySize=auto;html=1;entryX=0.5;entryY=0;entryDx=0;entryDy=0;endSize=1;strokeWidth=0.5;exitX=0.5;exitY=1;exitDx=0;exitDy=0;" parent="aSF58BXrVELDKBnofjXX-2" source="OymYbYq-C0z_gjibWfYz-108" target="OymYbYq-C0z_gjibWfYz-110" edge="1">
          <mxGeometry relative="1" as="geometry">
            <mxPoint x="396" y="198" as="sourcePoint" />
          </mxGeometry>
        </mxCell>
        <mxCell id="OymYbYq-C0z_gjibWfYz-108" value="" style="ellipse;whiteSpace=wrap;html=1;aspect=fixed;strokeColor=none;fillColor=#6cad45;" parent="aSF58BXrVELDKBnofjXX-2" vertex="1">
          <mxGeometry x="377" y="181" width="20" height="20" as="geometry" />
        </mxCell>
        <mxCell id="OymYbYq-C0z_gjibWfYz-109" value="" style="ellipse;whiteSpace=wrap;html=1;aspect=fixed;strokeColor=none;fillColor=#6cad45;" parent="aSF58BXrVELDKBnofjXX-2" vertex="1">
          <mxGeometry x="357" y="213" width="20" height="20" as="geometry" />
        </mxCell>
        <mxCell id="OymYbYq-C0z_gjibWfYz-110" value="" style="ellipse;whiteSpace=wrap;html=1;aspect=fixed;strokeColor=none;fillColor=#f47a34;" parent="aSF58BXrVELDKBnofjXX-2" vertex="1">
          <mxGeometry x="395" y="213" width="20" height="20" as="geometry" />
        </mxCell>
        <mxCell id="OymYbYq-C0z_gjibWfYz-125" style="rounded=0;orthogonalLoop=1;jettySize=auto;html=1;exitX=0.5;exitY=1;exitDx=0;exitDy=0;entryX=0.5;entryY=0;entryDx=0;entryDy=0;endSize=1;strokeWidth=0.5;" parent="aSF58BXrVELDKBnofjXX-2" source="OymYbYq-C0z_gjibWfYz-111" target="OymYbYq-C0z_gjibWfYz-114" edge="1">
          <mxGeometry relative="1" as="geometry" />
        </mxCell>
        <mxCell id="OymYbYq-C0z_gjibWfYz-127" style="rounded=0;orthogonalLoop=1;jettySize=auto;html=1;exitX=0.5;exitY=1;exitDx=0;exitDy=0;entryX=0.5;entryY=0;entryDx=0;entryDy=0;endSize=1;strokeWidth=0.5;" parent="aSF58BXrVELDKBnofjXX-2" source="OymYbYq-C0z_gjibWfYz-111" target="OymYbYq-C0z_gjibWfYz-113" edge="1">
          <mxGeometry relative="1" as="geometry" />
        </mxCell>
        <mxCell id="OymYbYq-C0z_gjibWfYz-111" value="" style="ellipse;whiteSpace=wrap;html=1;aspect=fixed;strokeColor=none;fillColor=#f47a34;" parent="aSF58BXrVELDKBnofjXX-2" vertex="1">
          <mxGeometry x="457" y="213" width="20" height="20" as="geometry" />
        </mxCell>
        <mxCell id="OymYbYq-C0z_gjibWfYz-112" value="" style="ellipse;whiteSpace=wrap;html=1;aspect=fixed;strokeColor=none;fillColor=#f47a34;" parent="aSF58BXrVELDKBnofjXX-2" vertex="1">
          <mxGeometry x="418" y="213" width="20" height="20" as="geometry" />
        </mxCell>
        <mxCell id="OymYbYq-C0z_gjibWfYz-113" value="" style="ellipse;whiteSpace=wrap;html=1;aspect=fixed;strokeColor=none;fillColor=#f47a34;" parent="aSF58BXrVELDKBnofjXX-2" vertex="1">
          <mxGeometry x="477" y="246" width="20" height="20" as="geometry" />
        </mxCell>
        <mxCell id="OymYbYq-C0z_gjibWfYz-114" value="" style="ellipse;whiteSpace=wrap;html=1;aspect=fixed;strokeColor=none;fillColor=#f47a34;" parent="aSF58BXrVELDKBnofjXX-2" vertex="1">
          <mxGeometry x="432" y="246" width="20" height="20" as="geometry" />
        </mxCell>
        <mxCell id="OymYbYq-C0z_gjibWfYz-147" style="rounded=0;orthogonalLoop=1;jettySize=auto;html=1;exitX=0.5;exitY=1;exitDx=0;exitDy=0;entryX=0.5;entryY=0;entryDx=0;entryDy=0;endSize=1;strokeWidth=0.5;" parent="aSF58BXrVELDKBnofjXX-2" source="OymYbYq-C0z_gjibWfYz-128" edge="1">
          <mxGeometry relative="1" as="geometry">
            <mxPoint x="517.5" y="196" as="targetPoint" />
          </mxGeometry>
        </mxCell>
        <mxCell id="OymYbYq-C0z_gjibWfYz-149" style="rounded=0;orthogonalLoop=1;jettySize=auto;html=1;exitX=0.5;exitY=1;exitDx=0;exitDy=0;entryX=0.5;entryY=0;entryDx=0;entryDy=0;endSize=1;strokeWidth=0.5;" parent="aSF58BXrVELDKBnofjXX-2" source="OymYbYq-C0z_gjibWfYz-128" target="OymYbYq-C0z_gjibWfYz-129" edge="1">
          <mxGeometry relative="1" as="geometry" />
        </mxCell>
        <mxCell id="OymYbYq-C0z_gjibWfYz-128" value="" style="ellipse;whiteSpace=wrap;html=1;aspect=fixed;strokeColor=none;fillColor=#F9BE00;" parent="aSF58BXrVELDKBnofjXX-2" vertex="1">
          <mxGeometry x="520" y="170" width="15" height="15" as="geometry" />
        </mxCell>
        <mxCell id="OymYbYq-C0z_gjibWfYz-129" value="" style="ellipse;whiteSpace=wrap;html=1;aspect=fixed;strokeColor=none;fillColor=#F9BE00;" parent="aSF58BXrVELDKBnofjXX-2" vertex="1">
          <mxGeometry x="530" y="196" width="15" height="15" as="geometry" />
        </mxCell>
        <mxCell id="OymYbYq-C0z_gjibWfYz-130" value="" style="ellipse;whiteSpace=wrap;html=1;aspect=fixed;strokeColor=none;fillColor=#6cad45;" parent="aSF58BXrVELDKBnofjXX-2" vertex="1">
          <mxGeometry x="506" y="196" width="15" height="15" as="geometry" />
        </mxCell>
        <mxCell id="OymYbYq-C0z_gjibWfYz-150" style="rounded=0;orthogonalLoop=1;jettySize=auto;html=1;exitX=0.5;exitY=1;exitDx=0;exitDy=0;entryX=0.5;entryY=0;entryDx=0;entryDy=0;endSize=1;strokeWidth=0.5;" parent="aSF58BXrVELDKBnofjXX-2" source="OymYbYq-C0z_gjibWfYz-132" target="OymYbYq-C0z_gjibWfYz-134" edge="1">
          <mxGeometry relative="1" as="geometry" />
        </mxCell>
        <mxCell id="OymYbYq-C0z_gjibWfYz-151" style="rounded=0;orthogonalLoop=1;jettySize=auto;html=1;exitX=0.5;exitY=1;exitDx=0;exitDy=0;entryX=0.5;entryY=0;entryDx=0;entryDy=0;endSize=1;strokeWidth=0.5;" parent="aSF58BXrVELDKBnofjXX-2" source="OymYbYq-C0z_gjibWfYz-132" target="OymYbYq-C0z_gjibWfYz-133" edge="1">
          <mxGeometry relative="1" as="geometry" />
        </mxCell>
        <mxCell id="OymYbYq-C0z_gjibWfYz-132" value="" style="ellipse;whiteSpace=wrap;html=1;aspect=fixed;strokeColor=none;fillColor=#F9BE00;" parent="aSF58BXrVELDKBnofjXX-2" vertex="1">
          <mxGeometry x="593" y="168" width="15" height="15" as="geometry" />
        </mxCell>
        <mxCell id="OymYbYq-C0z_gjibWfYz-133" value="" style="ellipse;whiteSpace=wrap;html=1;aspect=fixed;strokeColor=none;fillColor=#F9BE00;" parent="aSF58BXrVELDKBnofjXX-2" vertex="1">
          <mxGeometry x="604" y="195" width="15" height="15" as="geometry" />
        </mxCell>
        <mxCell id="OymYbYq-C0z_gjibWfYz-152" style="rounded=0;orthogonalLoop=1;jettySize=auto;html=1;exitX=0.5;exitY=1;exitDx=0;exitDy=0;entryX=0.5;entryY=0;entryDx=0;entryDy=0;endSize=1;strokeWidth=0.5;" parent="aSF58BXrVELDKBnofjXX-2" source="OymYbYq-C0z_gjibWfYz-134" target="OymYbYq-C0z_gjibWfYz-136" edge="1">
          <mxGeometry relative="1" as="geometry" />
        </mxCell>
        <mxCell id="OymYbYq-C0z_gjibWfYz-134" value="" style="ellipse;whiteSpace=wrap;html=1;aspect=fixed;strokeColor=none;fillColor=#F9BE00;" parent="aSF58BXrVELDKBnofjXX-2" vertex="1">
          <mxGeometry x="582" y="195" width="15" height="15" as="geometry" />
        </mxCell>
        <mxCell id="OymYbYq-C0z_gjibWfYz-135" value="" style="ellipse;whiteSpace=wrap;html=1;aspect=fixed;strokeColor=none;fillColor=#6cad45;" parent="aSF58BXrVELDKBnofjXX-2" vertex="1">
          <mxGeometry x="594" y="223" width="15" height="15" as="geometry" />
        </mxCell>
        <mxCell id="OymYbYq-C0z_gjibWfYz-136" value="" style="ellipse;whiteSpace=wrap;html=1;aspect=fixed;strokeColor=none;fillColor=#F9BE00;" parent="aSF58BXrVELDKBnofjXX-2" vertex="1">
          <mxGeometry x="572" y="223" width="15" height="15" as="geometry" />
        </mxCell>
        <mxCell id="OymYbYq-C0z_gjibWfYz-154" style="rounded=0;orthogonalLoop=1;jettySize=auto;html=1;exitX=0.5;exitY=1;exitDx=0;exitDy=0;entryX=0.5;entryY=0;entryDx=0;entryDy=0;endSize=1;strokeWidth=0.5;" parent="aSF58BXrVELDKBnofjXX-2" source="OymYbYq-C0z_gjibWfYz-137" target="OymYbYq-C0z_gjibWfYz-139" edge="1">
          <mxGeometry relative="1" as="geometry" />
        </mxCell>
        <mxCell id="OymYbYq-C0z_gjibWfYz-155" style="rounded=0;orthogonalLoop=1;jettySize=auto;html=1;exitX=0.5;exitY=1;exitDx=0;exitDy=0;entryX=0.5;entryY=0;entryDx=0;entryDy=0;endSize=1;strokeWidth=0.5;" parent="aSF58BXrVELDKBnofjXX-2" source="OymYbYq-C0z_gjibWfYz-137" target="OymYbYq-C0z_gjibWfYz-138" edge="1">
          <mxGeometry relative="1" as="geometry" />
        </mxCell>
        <mxCell id="OymYbYq-C0z_gjibWfYz-137" value="" style="ellipse;whiteSpace=wrap;html=1;aspect=fixed;strokeColor=none;fillColor=#F9BE00;" parent="aSF58BXrVELDKBnofjXX-2" vertex="1">
          <mxGeometry x="665" y="167.5" width="15" height="15" as="geometry" />
        </mxCell>
        <mxCell id="OymYbYq-C0z_gjibWfYz-138" value="" style="ellipse;whiteSpace=wrap;html=1;aspect=fixed;strokeColor=none;fillColor=#6cad45;" parent="aSF58BXrVELDKBnofjXX-2" vertex="1">
          <mxGeometry x="676" y="192.39999999999998" width="15" height="15" as="geometry" />
        </mxCell>
        <mxCell id="OymYbYq-C0z_gjibWfYz-156" style="rounded=0;orthogonalLoop=1;jettySize=auto;html=1;exitX=0.5;exitY=1;exitDx=0;exitDy=0;entryX=0.5;entryY=0;entryDx=0;entryDy=0;endSize=1;strokeWidth=0.5;" parent="aSF58BXrVELDKBnofjXX-2" source="OymYbYq-C0z_gjibWfYz-139" target="OymYbYq-C0z_gjibWfYz-141" edge="1">
          <mxGeometry relative="1" as="geometry" />
        </mxCell>
        <mxCell id="OymYbYq-C0z_gjibWfYz-157" style="rounded=0;orthogonalLoop=1;jettySize=auto;html=1;exitX=0.5;exitY=1;exitDx=0;exitDy=0;entryX=0.5;entryY=0;entryDx=0;entryDy=0;endSize=1;strokeWidth=0.5;" parent="aSF58BXrVELDKBnofjXX-2" source="OymYbYq-C0z_gjibWfYz-139" target="OymYbYq-C0z_gjibWfYz-140" edge="1">
          <mxGeometry relative="1" as="geometry" />
        </mxCell>
        <mxCell id="OymYbYq-C0z_gjibWfYz-139" value="" style="ellipse;whiteSpace=wrap;html=1;aspect=fixed;strokeColor=none;fillColor=#F9BE00;" parent="aSF58BXrVELDKBnofjXX-2" vertex="1">
          <mxGeometry x="655" y="192.39999999999998" width="15" height="15" as="geometry" />
        </mxCell>
        <mxCell id="OymYbYq-C0z_gjibWfYz-158" style="rounded=0;orthogonalLoop=1;jettySize=auto;html=1;exitX=0.5;exitY=1;exitDx=0;exitDy=0;entryX=0.5;entryY=0;entryDx=0;entryDy=0;endSize=1;strokeWidth=0.5;" parent="aSF58BXrVELDKBnofjXX-2" source="OymYbYq-C0z_gjibWfYz-140" target="OymYbYq-C0z_gjibWfYz-143" edge="1">
          <mxGeometry relative="1" as="geometry" />
        </mxCell>
        <mxCell id="OymYbYq-C0z_gjibWfYz-159" style="rounded=0;orthogonalLoop=1;jettySize=auto;html=1;exitX=0.5;exitY=1;exitDx=0;exitDy=0;entryX=0.5;entryY=0;entryDx=0;entryDy=0;endSize=1;strokeWidth=0.5;" parent="aSF58BXrVELDKBnofjXX-2" source="OymYbYq-C0z_gjibWfYz-140" target="OymYbYq-C0z_gjibWfYz-142" edge="1">
          <mxGeometry relative="1" as="geometry" />
        </mxCell>
        <mxCell id="OymYbYq-C0z_gjibWfYz-140" value="" style="ellipse;whiteSpace=wrap;html=1;aspect=fixed;strokeColor=none;fillColor=#F9BE00;" parent="aSF58BXrVELDKBnofjXX-2" vertex="1">
          <mxGeometry x="665" y="218.5" width="15" height="15" as="geometry" />
        </mxCell>
        <mxCell id="OymYbYq-C0z_gjibWfYz-141" value="" style="ellipse;whiteSpace=wrap;html=1;aspect=fixed;strokeColor=none;fillColor=#F9BE00;" parent="aSF58BXrVELDKBnofjXX-2" vertex="1">
          <mxGeometry x="645" y="219" width="15" height="15" as="geometry" />
        </mxCell>
        <mxCell id="OymYbYq-C0z_gjibWfYz-142" value="" style="ellipse;whiteSpace=wrap;html=1;aspect=fixed;strokeColor=none;fillColor=#F9BE00;" parent="aSF58BXrVELDKBnofjXX-2" vertex="1">
          <mxGeometry x="676" y="246" width="15" height="15" as="geometry" />
        </mxCell>
        <mxCell id="OymYbYq-C0z_gjibWfYz-143" value="" style="ellipse;whiteSpace=wrap;html=1;aspect=fixed;strokeColor=none;fillColor=#F9BE00;" parent="aSF58BXrVELDKBnofjXX-2" vertex="1">
          <mxGeometry x="655" y="246" width="15" height="15" as="geometry" />
        </mxCell>
        <mxCell id="OymYbYq-C0z_gjibWfYz-144" value="" style="html=1;shadow=0;dashed=0;align=center;verticalAlign=middle;shape=mxgraph.arrows2.arrow;dy=0.52;dx=9.09;notch=0;aspect=fixed;strokeColor=none;fillColor=#f47a34;" parent="aSF58BXrVELDKBnofjXX-2" vertex="1">
          <mxGeometry x="553" y="190.39999999999998" width="19" height="15.2" as="geometry" />
        </mxCell>
        <mxCell id="OymYbYq-C0z_gjibWfYz-146" value="" style="html=1;shadow=0;dashed=0;align=center;verticalAlign=middle;shape=mxgraph.arrows2.arrow;dy=0.52;dx=9.09;notch=0;aspect=fixed;strokeColor=none;fillColor=#f47a34;" parent="aSF58BXrVELDKBnofjXX-2" vertex="1">
          <mxGeometry x="626" y="190.39999999999998" width="19" height="15.2" as="geometry" />
        </mxCell>
        <mxCell id="OymYbYq-C0z_gjibWfYz-153" style="rounded=0;orthogonalLoop=1;jettySize=auto;html=1;exitX=0.5;exitY=1;exitDx=0;exitDy=0;entryX=0.284;entryY=0.031;entryDx=0;entryDy=0;entryPerimeter=0;endSize=1;strokeWidth=0.5;" parent="aSF58BXrVELDKBnofjXX-2" source="OymYbYq-C0z_gjibWfYz-134" target="OymYbYq-C0z_gjibWfYz-135" edge="1">
          <mxGeometry relative="1" as="geometry" />
        </mxCell>
        <mxCell id="OymYbYq-C0z_gjibWfYz-166" value="" style="rounded=1;whiteSpace=wrap;html=1;fillColor=none;strokeWidth=2;dashed=1;" parent="aSF58BXrVELDKBnofjXX-2" vertex="1">
          <mxGeometry width="700" height="315" as="geometry" />
        </mxCell>
        <mxCell id="OymYbYq-C0z_gjibWfYz-167" style="edgeStyle=orthogonalEdgeStyle;rounded=0;orthogonalLoop=1;jettySize=auto;html=1;exitX=0.5;exitY=1;exitDx=0;exitDy=0;" parent="aSF58BXrVELDKBnofjXX-2" source="OymYbYq-C0z_gjibWfYz-166" target="OymYbYq-C0z_gjibWfYz-166" edge="1">
          <mxGeometry relative="1" as="geometry" />
        </mxCell>
        <mxCell id="aSF58BXrVELDKBnofjXX-5" value="" style="rounded=0;whiteSpace=wrap;html=1;strokeColor=none;fillColor=#fbe1ce;" vertex="1" parent="1">
          <mxGeometry x="50" y="660.4761904761905" width="433.33" height="102.14285714285715" as="geometry" />
        </mxCell>
        <mxCell id="aSF58BXrVELDKBnofjXX-6" value="&lt;p style=&quot;text-align: justify; line-height: 120%;&quot;&gt;&lt;font color=&quot;#000000&quot; style=&quot;font-size: 22px;&quot; face=&quot;Garamond&quot;&gt;MLP&lt;/font&gt;&lt;/p&gt;" style="rounded=0;whiteSpace=wrap;html=1;labelBackgroundColor=none;fillColor=#bcdaee;fontColor=#ffffff;strokeColor=#000000;" vertex="1" parent="1">
          <mxGeometry x="56.19042857142857" y="629.5238095238095" width="86.666" height="24.761904761904763" as="geometry" />
        </mxCell>
        <mxCell id="aSF58BXrVELDKBnofjXX-7" value="&lt;p style=&quot;text-align: justify; line-height: 120%;&quot;&gt;&lt;font color=&quot;#000000&quot; style=&quot;font-size: 22px;&quot; face=&quot;Garamond&quot;&gt;SVM&lt;/font&gt;&lt;/p&gt;" style="rounded=0;whiteSpace=wrap;html=1;labelBackgroundColor=none;fillColor=#bcdaee;fontColor=#ffffff;strokeColor=#000000;" vertex="1" parent="1">
          <mxGeometry x="161.42771428571427" y="629.5238095238095" width="86.666" height="24.761904761904763" as="geometry" />
        </mxCell>
        <mxCell id="aSF58BXrVELDKBnofjXX-8" value="&lt;p style=&quot;text-align: justify; line-height: 120%;&quot;&gt;&lt;font color=&quot;#000000&quot; style=&quot;font-size: 22px;&quot; face=&quot;Garamond&quot;&gt;RF&lt;/font&gt;&lt;/p&gt;" style="rounded=0;whiteSpace=wrap;html=1;labelBackgroundColor=none;fillColor=#bcdaee;fontColor=#ffffff;strokeColor=#000000;" vertex="1" parent="1">
          <mxGeometry x="272.85542857142855" y="629.5238095238095" width="86.666" height="24.761904761904763" as="geometry" />
        </mxCell>
        <mxCell id="aSF58BXrVELDKBnofjXX-9" value="&lt;p style=&quot;text-align: justify; line-height: 120%;&quot;&gt;&lt;font color=&quot;#000000&quot; style=&quot;font-size: 22px;&quot; face=&quot;Garamond&quot;&gt;LGBM&lt;/font&gt;&lt;/p&gt;" style="rounded=0;whiteSpace=wrap;html=1;labelBackgroundColor=none;fillColor=#bcdaee;fontColor=#ffffff;strokeColor=#000000;" vertex="1" parent="1">
          <mxGeometry x="390.4735714285714" y="629.5238095238095" width="86.666" height="24.761904761904763" as="geometry" />
        </mxCell>
        <mxCell id="aSF58BXrVELDKBnofjXX-10" style="rounded=0;orthogonalLoop=1;jettySize=auto;html=1;exitX=1;exitY=0.5;exitDx=0;exitDy=0;entryX=0;entryY=0.5;entryDx=0;entryDy=0;endSize=1;strokeWidth=0.5;" edge="1" parent="1" source="aSF58BXrVELDKBnofjXX-14" target="aSF58BXrVELDKBnofjXX-47">
          <mxGeometry relative="1" as="geometry" />
        </mxCell>
        <mxCell id="aSF58BXrVELDKBnofjXX-11" style="rounded=0;orthogonalLoop=1;jettySize=auto;html=1;exitX=1;exitY=0.5;exitDx=0;exitDy=0;entryX=0;entryY=0.5;entryDx=0;entryDy=0;endSize=1;strokeWidth=0.5;" edge="1" parent="1" source="aSF58BXrVELDKBnofjXX-14" target="aSF58BXrVELDKBnofjXX-41">
          <mxGeometry relative="1" as="geometry" />
        </mxCell>
        <mxCell id="aSF58BXrVELDKBnofjXX-12" style="rounded=0;orthogonalLoop=1;jettySize=auto;html=1;exitX=1;exitY=0.5;exitDx=0;exitDy=0;entryX=0;entryY=0.5;entryDx=0;entryDy=0;endSize=1;strokeWidth=0.5;" edge="1" parent="1" source="aSF58BXrVELDKBnofjXX-14" target="aSF58BXrVELDKBnofjXX-43">
          <mxGeometry relative="1" as="geometry" />
        </mxCell>
        <mxCell id="aSF58BXrVELDKBnofjXX-13" style="rounded=0;orthogonalLoop=1;jettySize=auto;html=1;exitX=1;exitY=0.5;exitDx=0;exitDy=0;entryX=0;entryY=0.5;entryDx=0;entryDy=0;endSize=1;strokeWidth=0.5;" edge="1" parent="1" source="aSF58BXrVELDKBnofjXX-14" target="aSF58BXrVELDKBnofjXX-45">
          <mxGeometry relative="1" as="geometry" />
        </mxCell>
        <mxCell id="aSF58BXrVELDKBnofjXX-14" value="" style="ellipse;whiteSpace=wrap;html=1;aspect=fixed;strokeColor=none;fillColor=#F9BE00;" vertex="1" parent="1">
          <mxGeometry x="62.38085714285714" y="672.8571428571429" width="9.285642857142857" height="9.285642857142857" as="geometry" />
        </mxCell>
        <mxCell id="aSF58BXrVELDKBnofjXX-15" style="edgeStyle=orthogonalEdgeStyle;rounded=1;orthogonalLoop=1;jettySize=auto;html=1;exitX=1;exitY=0.5;exitDx=0;exitDy=0;entryX=0;entryY=0.5;entryDx=0;entryDy=0;endSize=1;startSize=3;curved=0;strokeWidth=0.5;" edge="1" parent="1" source="aSF58BXrVELDKBnofjXX-19" target="aSF58BXrVELDKBnofjXX-41">
          <mxGeometry relative="1" as="geometry" />
        </mxCell>
        <mxCell id="aSF58BXrVELDKBnofjXX-16" style="rounded=0;orthogonalLoop=1;jettySize=auto;html=1;exitX=1;exitY=0.5;exitDx=0;exitDy=0;entryX=0;entryY=0.5;entryDx=0;entryDy=0;endSize=1;strokeWidth=0.5;" edge="1" parent="1" source="aSF58BXrVELDKBnofjXX-19" target="aSF58BXrVELDKBnofjXX-43">
          <mxGeometry relative="1" as="geometry" />
        </mxCell>
        <mxCell id="aSF58BXrVELDKBnofjXX-17" style="rounded=0;orthogonalLoop=1;jettySize=auto;html=1;exitX=1;exitY=0.5;exitDx=0;exitDy=0;entryX=0;entryY=0.5;entryDx=0;entryDy=0;endSize=1;strokeWidth=0.5;" edge="1" parent="1" source="aSF58BXrVELDKBnofjXX-19" target="aSF58BXrVELDKBnofjXX-45">
          <mxGeometry relative="1" as="geometry" />
        </mxCell>
        <mxCell id="aSF58BXrVELDKBnofjXX-18" style="rounded=0;orthogonalLoop=1;jettySize=auto;html=1;exitX=1;exitY=0.5;exitDx=0;exitDy=0;entryX=0;entryY=0.5;entryDx=0;entryDy=0;endSize=1;strokeWidth=0.5;" edge="1" parent="1" source="aSF58BXrVELDKBnofjXX-19" target="aSF58BXrVELDKBnofjXX-47">
          <mxGeometry relative="1" as="geometry" />
        </mxCell>
        <mxCell id="aSF58BXrVELDKBnofjXX-19" value="" style="ellipse;whiteSpace=wrap;html=1;aspect=fixed;strokeColor=none;fillColor=#F9BE00;" vertex="1" parent="1">
          <mxGeometry x="62.38085714285714" y="685.2380952380952" width="9.285642857142857" height="9.285642857142857" as="geometry" />
        </mxCell>
        <mxCell id="aSF58BXrVELDKBnofjXX-20" style="rounded=0;orthogonalLoop=1;jettySize=auto;html=1;exitX=1;exitY=0.5;exitDx=0;exitDy=0;entryX=0;entryY=0.5;entryDx=0;entryDy=0;endSize=1;strokeWidth=0.5;" edge="1" parent="1" source="aSF58BXrVELDKBnofjXX-24" target="aSF58BXrVELDKBnofjXX-43">
          <mxGeometry relative="1" as="geometry">
            <mxPoint x="93.333" y="702.5714285714286" as="targetPoint" />
          </mxGeometry>
        </mxCell>
        <mxCell id="aSF58BXrVELDKBnofjXX-21" style="rounded=0;orthogonalLoop=1;jettySize=auto;html=1;exitX=1;exitY=0.5;exitDx=0;exitDy=0;entryX=0;entryY=0.5;entryDx=0;entryDy=0;strokeWidth=0.5;endSize=0;" edge="1" parent="1" source="aSF58BXrVELDKBnofjXX-24" target="aSF58BXrVELDKBnofjXX-41">
          <mxGeometry relative="1" as="geometry" />
        </mxCell>
        <mxCell id="aSF58BXrVELDKBnofjXX-22" style="rounded=0;orthogonalLoop=1;jettySize=auto;html=1;exitX=1;exitY=0.5;exitDx=0;exitDy=0;entryX=0;entryY=0.5;entryDx=0;entryDy=0;endSize=0;strokeWidth=0.5;" edge="1" parent="1" source="aSF58BXrVELDKBnofjXX-24" target="aSF58BXrVELDKBnofjXX-45">
          <mxGeometry relative="1" as="geometry" />
        </mxCell>
        <mxCell id="aSF58BXrVELDKBnofjXX-23" style="rounded=0;orthogonalLoop=1;jettySize=auto;html=1;exitX=1;exitY=0.5;exitDx=0;exitDy=0;entryX=0;entryY=0.5;entryDx=0;entryDy=0;endSize=1;strokeWidth=0.5;" edge="1" parent="1" source="aSF58BXrVELDKBnofjXX-24" target="aSF58BXrVELDKBnofjXX-47">
          <mxGeometry relative="1" as="geometry" />
        </mxCell>
        <mxCell id="aSF58BXrVELDKBnofjXX-24" value="" style="ellipse;whiteSpace=wrap;html=1;aspect=fixed;strokeColor=none;fillColor=#F9BE00;" vertex="1" parent="1">
          <mxGeometry x="62.38085714285714" y="697.6190476190476" width="9.285642857142857" height="9.285642857142857" as="geometry" />
        </mxCell>
        <mxCell id="aSF58BXrVELDKBnofjXX-25" style="rounded=0;orthogonalLoop=1;jettySize=auto;html=1;exitX=1;exitY=0.5;exitDx=0;exitDy=0;entryX=0;entryY=0.5;entryDx=0;entryDy=0;endSize=1;strokeWidth=0.5;" edge="1" parent="1" source="aSF58BXrVELDKBnofjXX-29" target="aSF58BXrVELDKBnofjXX-45">
          <mxGeometry relative="1" as="geometry" />
        </mxCell>
        <mxCell id="aSF58BXrVELDKBnofjXX-26" style="rounded=0;orthogonalLoop=1;jettySize=auto;html=1;exitX=1;exitY=0.5;exitDx=0;exitDy=0;entryX=0;entryY=0.5;entryDx=0;entryDy=0;endSize=1;strokeWidth=0.5;" edge="1" parent="1" source="aSF58BXrVELDKBnofjXX-29" target="aSF58BXrVELDKBnofjXX-41">
          <mxGeometry relative="1" as="geometry" />
        </mxCell>
        <mxCell id="aSF58BXrVELDKBnofjXX-27" style="rounded=0;orthogonalLoop=1;jettySize=auto;html=1;exitX=1;exitY=0.5;exitDx=0;exitDy=0;entryX=0;entryY=0.5;entryDx=0;entryDy=0;endSize=1;strokeWidth=0.5;" edge="1" parent="1" source="aSF58BXrVELDKBnofjXX-29" target="aSF58BXrVELDKBnofjXX-43">
          <mxGeometry relative="1" as="geometry" />
        </mxCell>
        <mxCell id="aSF58BXrVELDKBnofjXX-28" style="rounded=0;orthogonalLoop=1;jettySize=auto;html=1;exitX=1;exitY=0.5;exitDx=0;exitDy=0;entryX=0;entryY=0.5;entryDx=0;entryDy=0;endSize=1;strokeWidth=0.5;" edge="1" parent="1" source="aSF58BXrVELDKBnofjXX-29" target="aSF58BXrVELDKBnofjXX-47">
          <mxGeometry relative="1" as="geometry" />
        </mxCell>
        <mxCell id="aSF58BXrVELDKBnofjXX-29" value="" style="ellipse;whiteSpace=wrap;html=1;aspect=fixed;strokeColor=none;fillColor=#F9BE00;" vertex="1" parent="1">
          <mxGeometry x="62.38085714285714" y="710" width="9.285642857142857" height="9.285642857142857" as="geometry" />
        </mxCell>
        <mxCell id="aSF58BXrVELDKBnofjXX-30" style="edgeStyle=orthogonalEdgeStyle;rounded=0;orthogonalLoop=1;jettySize=auto;html=1;exitX=1;exitY=0.5;exitDx=0;exitDy=0;entryX=0;entryY=0.5;entryDx=0;entryDy=0;endSize=1;strokeWidth=0.5;" edge="1" parent="1" source="aSF58BXrVELDKBnofjXX-34" target="aSF58BXrVELDKBnofjXX-47">
          <mxGeometry relative="1" as="geometry" />
        </mxCell>
        <mxCell id="aSF58BXrVELDKBnofjXX-31" style="rounded=0;orthogonalLoop=1;jettySize=auto;html=1;exitX=1;exitY=0.5;exitDx=0;exitDy=0;entryX=0;entryY=0.5;entryDx=0;entryDy=0;strokeWidth=0.5;endSize=1;" edge="1" parent="1" source="aSF58BXrVELDKBnofjXX-34" target="aSF58BXrVELDKBnofjXX-41">
          <mxGeometry relative="1" as="geometry" />
        </mxCell>
        <mxCell id="aSF58BXrVELDKBnofjXX-32" style="rounded=0;orthogonalLoop=1;jettySize=auto;html=1;exitX=1;exitY=0.5;exitDx=0;exitDy=0;entryX=0;entryY=0.5;entryDx=0;entryDy=0;endSize=1;strokeWidth=0.5;" edge="1" parent="1" source="aSF58BXrVELDKBnofjXX-34" target="aSF58BXrVELDKBnofjXX-43">
          <mxGeometry relative="1" as="geometry" />
        </mxCell>
        <mxCell id="aSF58BXrVELDKBnofjXX-33" style="rounded=0;orthogonalLoop=1;jettySize=auto;html=1;exitX=1;exitY=0.5;exitDx=0;exitDy=0;entryX=0;entryY=0.5;entryDx=0;entryDy=0;strokeWidth=0.5;endSize=1;" edge="1" parent="1" source="aSF58BXrVELDKBnofjXX-34" target="aSF58BXrVELDKBnofjXX-45">
          <mxGeometry relative="1" as="geometry" />
        </mxCell>
        <mxCell id="aSF58BXrVELDKBnofjXX-34" value="" style="ellipse;whiteSpace=wrap;html=1;aspect=fixed;strokeColor=none;fillColor=#F9BE00;" vertex="1" parent="1">
          <mxGeometry x="62.38085714285714" y="722.3809523809524" width="9.285642857142857" height="9.285642857142857" as="geometry" />
        </mxCell>
        <mxCell id="aSF58BXrVELDKBnofjXX-35" style="rounded=0;orthogonalLoop=1;jettySize=auto;html=1;exitX=1;exitY=0.5;exitDx=0;exitDy=0;entryX=0;entryY=0.5;entryDx=0;entryDy=0;endSize=1;strokeWidth=0.5;" edge="1" parent="1" source="aSF58BXrVELDKBnofjXX-39" target="aSF58BXrVELDKBnofjXX-41">
          <mxGeometry relative="1" as="geometry" />
        </mxCell>
        <mxCell id="aSF58BXrVELDKBnofjXX-36" style="rounded=0;orthogonalLoop=1;jettySize=auto;html=1;exitX=1;exitY=0.5;exitDx=0;exitDy=0;entryX=0;entryY=0.5;entryDx=0;entryDy=0;strokeWidth=0.5;endSize=1;" edge="1" parent="1" source="aSF58BXrVELDKBnofjXX-39" target="aSF58BXrVELDKBnofjXX-43">
          <mxGeometry relative="1" as="geometry" />
        </mxCell>
        <mxCell id="aSF58BXrVELDKBnofjXX-37" style="rounded=0;orthogonalLoop=1;jettySize=auto;html=1;exitX=1;exitY=0.5;exitDx=0;exitDy=0;entryX=0;entryY=0.5;entryDx=0;entryDy=0;strokeWidth=0.5;endSize=1;" edge="1" parent="1" source="aSF58BXrVELDKBnofjXX-39" target="aSF58BXrVELDKBnofjXX-45">
          <mxGeometry relative="1" as="geometry" />
        </mxCell>
        <mxCell id="aSF58BXrVELDKBnofjXX-38" style="rounded=0;orthogonalLoop=1;jettySize=auto;html=1;exitX=1;exitY=0.5;exitDx=0;exitDy=0;entryX=0;entryY=0.5;entryDx=0;entryDy=0;strokeWidth=0.5;endSize=1;" edge="1" parent="1" source="aSF58BXrVELDKBnofjXX-39" target="aSF58BXrVELDKBnofjXX-47">
          <mxGeometry relative="1" as="geometry" />
        </mxCell>
        <mxCell id="aSF58BXrVELDKBnofjXX-39" value="" style="ellipse;whiteSpace=wrap;html=1;aspect=fixed;strokeColor=none;fillColor=#F9BE00;" vertex="1" parent="1">
          <mxGeometry x="62.38085714285714" y="735.3809523809524" width="9.285642857142857" height="9.285642857142857" as="geometry" />
        </mxCell>
        <mxCell id="aSF58BXrVELDKBnofjXX-40" style="rounded=0;orthogonalLoop=1;jettySize=auto;html=1;exitX=1;exitY=0.5;exitDx=0;exitDy=0;entryX=0;entryY=0.5;entryDx=0;entryDy=0;endSize=1;strokeWidth=0.5;" edge="1" parent="1" source="aSF58BXrVELDKBnofjXX-41" target="aSF58BXrVELDKBnofjXX-48">
          <mxGeometry relative="1" as="geometry" />
        </mxCell>
        <mxCell id="aSF58BXrVELDKBnofjXX-41" value="" style="ellipse;whiteSpace=wrap;html=1;aspect=fixed;strokeColor=none;fillColor=#6cad45;" vertex="1" parent="1">
          <mxGeometry x="94.57108571428572" y="685.2380952380952" width="9.285642857142857" height="9.285642857142857" as="geometry" />
        </mxCell>
        <mxCell id="aSF58BXrVELDKBnofjXX-42" style="rounded=0;orthogonalLoop=1;jettySize=auto;html=1;exitX=1;exitY=0.5;exitDx=0;exitDy=0;endSize=1;strokeWidth=0.5;entryX=0;entryY=0.5;entryDx=0;entryDy=0;" edge="1" parent="1" source="aSF58BXrVELDKBnofjXX-43" target="aSF58BXrVELDKBnofjXX-48">
          <mxGeometry relative="1" as="geometry" />
        </mxCell>
        <mxCell id="aSF58BXrVELDKBnofjXX-43" value="" style="ellipse;whiteSpace=wrap;html=1;aspect=fixed;strokeColor=none;fillColor=#6cad45;" vertex="1" parent="1">
          <mxGeometry x="94.57108571428572" y="697.6190476190476" width="9.285642857142857" height="9.285642857142857" as="geometry" />
        </mxCell>
        <mxCell id="aSF58BXrVELDKBnofjXX-44" style="rounded=0;orthogonalLoop=1;jettySize=auto;html=1;exitX=1;exitY=0.5;exitDx=0;exitDy=0;entryX=0;entryY=0.5;entryDx=0;entryDy=0;endSize=1;strokeWidth=0.5;" edge="1" parent="1" source="aSF58BXrVELDKBnofjXX-45" target="aSF58BXrVELDKBnofjXX-48">
          <mxGeometry relative="1" as="geometry" />
        </mxCell>
        <mxCell id="aSF58BXrVELDKBnofjXX-45" value="" style="ellipse;whiteSpace=wrap;html=1;aspect=fixed;strokeColor=none;fillColor=#6cad45;" vertex="1" parent="1">
          <mxGeometry x="94.57108571428572" y="710" width="9.285642857142857" height="9.285642857142857" as="geometry" />
        </mxCell>
        <mxCell id="aSF58BXrVELDKBnofjXX-46" style="rounded=0;orthogonalLoop=1;jettySize=auto;html=1;exitX=1;exitY=0.5;exitDx=0;exitDy=0;entryX=0;entryY=0.5;entryDx=0;entryDy=0;endSize=1;strokeWidth=0.5;" edge="1" parent="1" source="aSF58BXrVELDKBnofjXX-47" target="aSF58BXrVELDKBnofjXX-48">
          <mxGeometry relative="1" as="geometry" />
        </mxCell>
        <mxCell id="aSF58BXrVELDKBnofjXX-47" value="" style="ellipse;whiteSpace=wrap;html=1;aspect=fixed;strokeColor=none;fillColor=#6cad45;" vertex="1" parent="1">
          <mxGeometry x="94.57108571428572" y="722.3809523809524" width="9.285642857142857" height="9.285642857142857" as="geometry" />
        </mxCell>
        <mxCell id="aSF58BXrVELDKBnofjXX-48" value="" style="ellipse;whiteSpace=wrap;html=1;aspect=fixed;strokeColor=none;fillColor=#f47a34;" vertex="1" parent="1">
          <mxGeometry x="121.18992857142857" y="703.8095238095239" width="9.285642857142857" height="9.285642857142857" as="geometry" />
        </mxCell>
        <mxCell id="aSF58BXrVELDKBnofjXX-49" style="rounded=0;orthogonalLoop=1;jettySize=auto;html=1;exitX=0;exitY=0;exitDx=0;exitDy=0;entryX=1;entryY=1;entryDx=0;entryDy=0;dashed=1;endSize=0;startSize=0;jumpSize=0;endArrow=none;endFill=0;strokeColor=#f47a34;curved=1;" edge="1" parent="1" source="aSF58BXrVELDKBnofjXX-54" target="aSF58BXrVELDKBnofjXX-51">
          <mxGeometry relative="1" as="geometry">
            <Array as="points">
              <mxPoint x="169.47527142857143" y="711.2380952380952" />
            </Array>
          </mxGeometry>
        </mxCell>
        <mxCell id="aSF58BXrVELDKBnofjXX-50" style="rounded=0;orthogonalLoop=1;jettySize=auto;html=1;exitX=0;exitY=0;exitDx=0;exitDy=0;dashed=1;curved=1;endArrow=none;endFill=0;strokeColor=#f47a34;entryX=0;entryY=0;entryDx=0;entryDy=0;" edge="1" parent="1" target="aSF58BXrVELDKBnofjXX-51">
          <mxGeometry relative="1" as="geometry">
            <mxPoint x="157.09441428571427" y="692.6666666666666" as="sourcePoint" />
          </mxGeometry>
        </mxCell>
        <mxCell id="aSF58BXrVELDKBnofjXX-51" value="" style="ellipse;whiteSpace=wrap;html=1;aspect=fixed;strokeColor=none;fillColor=#f47a34;direction=south;" vertex="1" parent="1">
          <mxGeometry x="163.28484285714285" y="698.8571428571429" width="6.190428571428571" height="6.190428571428571" as="geometry" />
        </mxCell>
        <mxCell id="aSF58BXrVELDKBnofjXX-52" value="" style="ellipse;whiteSpace=wrap;html=1;aspect=fixed;strokeColor=none;fillColor=#f47a34;direction=south;" vertex="1" parent="1">
          <mxGeometry x="162.04675714285713" y="713.0952380952381" width="6.190428571428571" height="6.190428571428571" as="geometry" />
        </mxCell>
        <mxCell id="aSF58BXrVELDKBnofjXX-53" style="edgeStyle=orthogonalEdgeStyle;rounded=0;orthogonalLoop=1;jettySize=auto;html=1;exitX=0.5;exitY=0;exitDx=0;exitDy=0;entryX=1;entryY=1;entryDx=0;entryDy=0;dashed=1;endArrow=none;endFill=0;curved=1;strokeColor=#f47a34;" edge="1" parent="1" source="aSF58BXrVELDKBnofjXX-61" target="aSF58BXrVELDKBnofjXX-54">
          <mxGeometry relative="1" as="geometry">
            <Array as="points">
              <mxPoint x="195.47507142857143" y="729.8095238095239" />
              <mxPoint x="181.85612857142857" y="729.8095238095239" />
              <mxPoint x="181.85612857142857" y="713.7142857142858" />
              <mxPoint x="180.61804285714285" y="713.7142857142858" />
            </Array>
          </mxGeometry>
        </mxCell>
        <mxCell id="aSF58BXrVELDKBnofjXX-54" value="" style="ellipse;whiteSpace=wrap;html=1;aspect=fixed;strokeColor=none;fillColor=#f47a34;direction=south;" vertex="1" parent="1">
          <mxGeometry x="175.66570000000002" y="711.8571428571429" width="6.190428571428571" height="6.190428571428571" as="geometry" />
        </mxCell>
        <mxCell id="aSF58BXrVELDKBnofjXX-55" value="" style="ellipse;whiteSpace=wrap;html=1;aspect=fixed;strokeColor=none;fillColor=#f47a34;direction=west;rotation=105;" vertex="1" parent="1">
          <mxGeometry x="163.28484285714285" y="724.2380952380952" width="6.190428571428571" height="6.190428571428571" as="geometry" />
        </mxCell>
        <mxCell id="aSF58BXrVELDKBnofjXX-56" value="" style="ellipse;whiteSpace=wrap;html=1;aspect=fixed;strokeColor=none;fillColor=#f47a34;direction=south;" vertex="1" parent="1">
          <mxGeometry x="157.09441428571427" y="736.6190476190476" width="6.190428571428571" height="6.190428571428571" as="geometry" />
        </mxCell>
        <mxCell id="aSF58BXrVELDKBnofjXX-57" value="" style="ellipse;whiteSpace=wrap;html=1;aspect=fixed;strokeColor=none;fillColor=#f47a34;direction=south;" vertex="1" parent="1">
          <mxGeometry x="175.66570000000002" y="732.9047619047619" width="6.190428571428571" height="6.190428571428571" as="geometry" />
        </mxCell>
        <mxCell id="aSF58BXrVELDKBnofjXX-58" style="rounded=0;orthogonalLoop=1;jettySize=auto;html=1;dashed=1;endArrow=none;endFill=0;curved=1;strokeColor=#f47a34;entryX=1;entryY=1;entryDx=0;entryDy=0;" edge="1" parent="1" target="aSF58BXrVELDKBnofjXX-59">
          <mxGeometry relative="1" as="geometry">
            <mxPoint x="217.1415714285714" y="753.3333333333334" as="sourcePoint" />
            <Array as="points">
              <mxPoint x="217.1415714285714" y="753.3333333333334" />
            </Array>
          </mxGeometry>
        </mxCell>
        <mxCell id="aSF58BXrVELDKBnofjXX-59" value="" style="ellipse;whiteSpace=wrap;html=1;aspect=fixed;strokeColor=none;fillColor=#f47a34;direction=south;" vertex="1" parent="1">
          <mxGeometry x="201.66549999999998" y="742.8095238095239" width="6.190428571428571" height="6.190428571428571" as="geometry" />
        </mxCell>
        <mxCell id="aSF58BXrVELDKBnofjXX-60" style="rounded=0;orthogonalLoop=1;jettySize=auto;html=1;exitX=0;exitY=0;exitDx=0;exitDy=0;entryX=1;entryY=1;entryDx=0;entryDy=0;endArrow=none;endFill=0;curved=1;strokeColor=#f47a34;dashed=1;" edge="1" parent="1" source="aSF58BXrVELDKBnofjXX-59" target="aSF58BXrVELDKBnofjXX-61">
          <mxGeometry relative="1" as="geometry">
            <Array as="points">
              <mxPoint x="198.57028571428572" y="743.4285714285714" />
              <mxPoint x="192.37985714285713" y="740.952380952381" />
            </Array>
          </mxGeometry>
        </mxCell>
        <mxCell id="aSF58BXrVELDKBnofjXX-61" value="" style="ellipse;whiteSpace=wrap;html=1;aspect=fixed;strokeColor=none;fillColor=#f47a34;direction=south;" vertex="1" parent="1">
          <mxGeometry x="191.14177142857142" y="729.1904761904761" width="6.190428571428571" height="6.190428571428571" as="geometry" />
        </mxCell>
        <mxCell id="aSF58BXrVELDKBnofjXX-62" style="rounded=0;orthogonalLoop=1;jettySize=auto;html=1;exitX=1;exitY=1;exitDx=0;exitDy=0;entryX=0;entryY=0;entryDx=0;entryDy=0;dashed=1;endSize=0;startSize=0;jumpSize=0;endArrow=none;endFill=0;strokeColor=#6cad45;curved=1;" edge="1" parent="1" source="aSF58BXrVELDKBnofjXX-64" target="aSF58BXrVELDKBnofjXX-67">
          <mxGeometry relative="1" as="geometry">
            <Array as="points">
              <mxPoint x="197.95124285714286" y="692.6666666666666" />
            </Array>
          </mxGeometry>
        </mxCell>
        <mxCell id="aSF58BXrVELDKBnofjXX-63" style="rounded=0;orthogonalLoop=1;jettySize=auto;html=1;exitX=0;exitY=0;exitDx=0;exitDy=0;dashed=1;curved=1;endArrow=none;endFill=0;strokeColor=#6cad45;entryX=0;entryY=0;entryDx=0;entryDy=0;" edge="1" parent="1" source="aSF58BXrVELDKBnofjXX-64">
          <mxGeometry relative="1" as="geometry">
            <mxPoint x="181.85612857142857" y="677.1904761904761" as="targetPoint" />
          </mxGeometry>
        </mxCell>
        <mxCell id="aSF58BXrVELDKBnofjXX-64" value="" style="ellipse;whiteSpace=wrap;html=1;aspect=fixed;strokeColor=#6cad45;fillColor=#6cad45;direction=west;" vertex="1" parent="1">
          <mxGeometry x="191.76081428571428" y="680.2857142857143" width="6.190428571428571" height="6.190428571428571" as="geometry" />
        </mxCell>
        <mxCell id="aSF58BXrVELDKBnofjXX-65" value="" style="ellipse;whiteSpace=wrap;html=1;aspect=fixed;strokeColor=#6cad45;fillColor=#6cad45;direction=west;" vertex="1" parent="1">
          <mxGeometry x="197.3322" y="669.7619047619048" width="6.190428571428571" height="6.190428571428571" as="geometry" />
        </mxCell>
        <mxCell id="aSF58BXrVELDKBnofjXX-66" style="edgeStyle=orthogonalEdgeStyle;rounded=0;orthogonalLoop=1;jettySize=auto;html=1;exitX=1;exitY=1;exitDx=0;exitDy=0;entryX=0.5;entryY=0;entryDx=0;entryDy=0;dashed=1;endArrow=none;endFill=0;curved=1;strokeColor=#6cad45;" edge="1" parent="1" source="aSF58BXrVELDKBnofjXX-67" target="aSF58BXrVELDKBnofjXX-74">
          <mxGeometry relative="1" as="geometry">
            <Array as="points">
              <mxPoint x="209.09401428571428" y="695.1428571428571" />
              <mxPoint x="210.3321" y="695.1428571428571" />
              <mxPoint x="210.3321" y="711.2380952380952" />
              <mxPoint x="223.95104285714285" y="711.2380952380952" />
            </Array>
          </mxGeometry>
        </mxCell>
        <mxCell id="aSF58BXrVELDKBnofjXX-67" value="" style="ellipse;whiteSpace=wrap;html=1;aspect=fixed;strokeColor=#6cad45;fillColor=#6cad45;direction=west;" vertex="1" parent="1">
          <mxGeometry x="204.1416714285714" y="693.2857142857143" width="6.190428571428571" height="6.190428571428571" as="geometry" />
        </mxCell>
        <mxCell id="aSF58BXrVELDKBnofjXX-68" value="" style="ellipse;whiteSpace=wrap;html=1;aspect=fixed;strokeColor=#6cad45;fillColor=#6cad45;direction=north;rotation=105;" vertex="1" parent="1">
          <mxGeometry x="203.52262857142856" y="679.047619047619" width="6.190428571428571" height="6.190428571428571" as="geometry" />
        </mxCell>
        <mxCell id="aSF58BXrVELDKBnofjXX-69" value="" style="ellipse;whiteSpace=wrap;html=1;aspect=fixed;strokeColor=#6cad45;fillColor=#6cad45;direction=west;" vertex="1" parent="1">
          <mxGeometry x="217.76061428571427" y="702.2619047619048" width="6.190428571428571" height="6.190428571428571" as="geometry" />
        </mxCell>
        <mxCell id="aSF58BXrVELDKBnofjXX-70" value="" style="ellipse;whiteSpace=wrap;html=1;aspect=fixed;strokeColor=#6cad45;fillColor=#6cad45;direction=west;" vertex="1" parent="1">
          <mxGeometry x="233.85572857142856" y="711.8571428571429" width="6.190428571428571" height="6.190428571428571" as="geometry" />
        </mxCell>
        <mxCell id="aSF58BXrVELDKBnofjXX-71" style="rounded=0;orthogonalLoop=1;jettySize=auto;html=1;exitX=1;exitY=1;exitDx=0;exitDy=0;dashed=1;endArrow=none;endFill=0;curved=1;strokeColor=#6cad45;" edge="1" parent="1">
          <mxGeometry relative="1" as="geometry">
            <mxPoint x="227.9528244179174" y="728.2399075820416" as="sourcePoint" />
            <mxPoint x="251.80797142857142" y="737.8571428571429" as="targetPoint" />
            <Array as="points">
              <mxPoint x="239.42711428571428" y="744.047619047619" />
            </Array>
          </mxGeometry>
        </mxCell>
        <mxCell id="aSF58BXrVELDKBnofjXX-72" value="" style="ellipse;whiteSpace=wrap;html=1;aspect=fixed;strokeColor=#6cad45;fillColor=#6cad45;direction=west;" vertex="1" parent="1">
          <mxGeometry x="227.6653" y="727.3333333333334" width="6.190428571428571" height="6.190428571428571" as="geometry" />
        </mxCell>
        <mxCell id="aSF58BXrVELDKBnofjXX-73" style="rounded=0;orthogonalLoop=1;jettySize=auto;html=1;exitX=1;exitY=1;exitDx=0;exitDy=0;entryX=0;entryY=0;entryDx=0;entryDy=0;endArrow=none;endFill=0;curved=1;strokeColor=#6cad45;dashed=1;" edge="1" parent="1" source="aSF58BXrVELDKBnofjXX-74">
          <mxGeometry relative="1" as="geometry">
            <Array as="points">
              <mxPoint x="216.52252857142855" y="729.8095238095239" />
            </Array>
            <mxPoint x="232.3301184392255" y="732.6172352751012" as="targetPoint" />
          </mxGeometry>
        </mxCell>
        <mxCell id="aSF58BXrVELDKBnofjXX-74" value="" style="ellipse;whiteSpace=wrap;html=1;aspect=fixed;strokeColor=#6cad45;fillColor=#6cad45;direction=west;" vertex="1" parent="1">
          <mxGeometry x="220.85582857142856" y="714.952380952381" width="6.190428571428571" height="6.190428571428571" as="geometry" />
        </mxCell>
        <mxCell id="aSF58BXrVELDKBnofjXX-75" value="" style="ellipse;whiteSpace=wrap;html=1;aspect=fixed;strokeColor=#6cad45;fillColor=#6cad45;direction=west;" vertex="1" parent="1">
          <mxGeometry x="245.61754285714284" y="705.6666666666666" width="6.190428571428571" height="6.190428571428571" as="geometry" />
        </mxCell>
        <mxCell id="aSF58BXrVELDKBnofjXX-76" value="" style="curved=1;endArrow=none;html=1;rounded=0;endFill=0;" edge="1" parent="1">
          <mxGeometry width="50" height="50" relative="1" as="geometry">
            <mxPoint x="167.61814285714286" y="679.047619047619" as="sourcePoint" />
            <mxPoint x="229.52242857142858" y="747.1428571428571" as="targetPoint" />
            <Array as="points">
              <mxPoint x="189.28464285714284" y="688.6428571428571" />
              <mxPoint x="186.18942857142858" y="705.3571428571429" />
              <mxPoint x="198.57028571428572" y="716.1904761904761" />
              <mxPoint x="210.95114285714286" y="722.3809523809524" />
              <mxPoint x="210.95114285714286" y="742.5" />
            </Array>
          </mxGeometry>
        </mxCell>
        <mxCell id="aSF58BXrVELDKBnofjXX-77" style="rounded=0;orthogonalLoop=1;jettySize=auto;html=1;exitX=0.5;exitY=1;exitDx=0;exitDy=0;entryX=1;entryY=0;entryDx=0;entryDy=0;endSize=1;strokeWidth=0.5;" edge="1" parent="1" source="aSF58BXrVELDKBnofjXX-79" target="aSF58BXrVELDKBnofjXX-85">
          <mxGeometry relative="1" as="geometry" />
        </mxCell>
        <mxCell id="aSF58BXrVELDKBnofjXX-78" style="rounded=0;orthogonalLoop=1;jettySize=auto;html=1;exitX=0.5;exitY=1;exitDx=0;exitDy=0;entryX=0;entryY=0;entryDx=0;entryDy=0;strokeWidth=0.5;endSize=1;" edge="1" parent="1" source="aSF58BXrVELDKBnofjXX-79" target="aSF58BXrVELDKBnofjXX-82">
          <mxGeometry relative="1" as="geometry" />
        </mxCell>
        <mxCell id="aSF58BXrVELDKBnofjXX-79" value="" style="ellipse;whiteSpace=wrap;html=1;aspect=fixed;strokeColor=none;fillColor=#F9BE00;" vertex="1" parent="1">
          <mxGeometry x="302.5694857142857" y="671" width="12.380857142857142" height="12.380857142857142" as="geometry" />
        </mxCell>
        <mxCell id="aSF58BXrVELDKBnofjXX-80" style="rounded=0;orthogonalLoop=1;jettySize=auto;html=1;exitX=0.5;exitY=1;exitDx=0;exitDy=0;entryX=0.5;entryY=0;entryDx=0;entryDy=0;endSize=1;strokeWidth=0.5;" edge="1" parent="1" source="aSF58BXrVELDKBnofjXX-82" target="aSF58BXrVELDKBnofjXX-91">
          <mxGeometry relative="1" as="geometry" />
        </mxCell>
        <mxCell id="aSF58BXrVELDKBnofjXX-81" style="rounded=0;orthogonalLoop=1;jettySize=auto;html=1;exitX=0.5;exitY=1;exitDx=0;exitDy=0;entryX=0.5;entryY=0;entryDx=0;entryDy=0;endSize=1;strokeWidth=0.5;" edge="1" parent="1" source="aSF58BXrVELDKBnofjXX-82" target="aSF58BXrVELDKBnofjXX-90">
          <mxGeometry relative="1" as="geometry" />
        </mxCell>
        <mxCell id="aSF58BXrVELDKBnofjXX-82" value="" style="ellipse;whiteSpace=wrap;html=1;aspect=fixed;strokeColor=none;fillColor=#6cad45;" vertex="1" parent="1">
          <mxGeometry x="321.14077142857144" y="692.6666666666666" width="12.380857142857142" height="12.380857142857142" as="geometry" />
        </mxCell>
        <mxCell id="aSF58BXrVELDKBnofjXX-83" style="rounded=0;orthogonalLoop=1;jettySize=auto;html=1;entryX=0.5;entryY=0;entryDx=0;entryDy=0;endSize=1;strokeWidth=0.5;exitX=0.5;exitY=1;exitDx=0;exitDy=0;" edge="1" parent="1" source="aSF58BXrVELDKBnofjXX-85" target="aSF58BXrVELDKBnofjXX-86">
          <mxGeometry relative="1" as="geometry">
            <mxPoint x="291.4267142857143" y="696.3809523809524" as="sourcePoint" />
          </mxGeometry>
        </mxCell>
        <mxCell id="aSF58BXrVELDKBnofjXX-84" style="rounded=0;orthogonalLoop=1;jettySize=auto;html=1;entryX=0.5;entryY=0;entryDx=0;entryDy=0;endSize=1;strokeWidth=0.5;exitX=0.5;exitY=1;exitDx=0;exitDy=0;" edge="1" parent="1" source="aSF58BXrVELDKBnofjXX-85" target="aSF58BXrVELDKBnofjXX-87">
          <mxGeometry relative="1" as="geometry">
            <mxPoint x="295.14097142857145" y="702.5714285714286" as="sourcePoint" />
          </mxGeometry>
        </mxCell>
        <mxCell id="aSF58BXrVELDKBnofjXX-85" value="" style="ellipse;whiteSpace=wrap;html=1;aspect=fixed;strokeColor=none;fillColor=#6cad45;" vertex="1" parent="1">
          <mxGeometry x="283.37915714285714" y="692.047619047619" width="12.380857142857142" height="12.380857142857142" as="geometry" />
        </mxCell>
        <mxCell id="aSF58BXrVELDKBnofjXX-86" value="" style="ellipse;whiteSpace=wrap;html=1;aspect=fixed;strokeColor=none;fillColor=#6cad45;" vertex="1" parent="1">
          <mxGeometry x="270.9983" y="711.8571428571429" width="12.380857142857142" height="12.380857142857142" as="geometry" />
        </mxCell>
        <mxCell id="aSF58BXrVELDKBnofjXX-87" value="" style="ellipse;whiteSpace=wrap;html=1;aspect=fixed;strokeColor=none;fillColor=#f47a34;" vertex="1" parent="1">
          <mxGeometry x="294.5219285714286" y="711.8571428571429" width="12.380857142857142" height="12.380857142857142" as="geometry" />
        </mxCell>
        <mxCell id="aSF58BXrVELDKBnofjXX-88" style="rounded=0;orthogonalLoop=1;jettySize=auto;html=1;exitX=0.5;exitY=1;exitDx=0;exitDy=0;entryX=0.5;entryY=0;entryDx=0;entryDy=0;endSize=1;strokeWidth=0.5;" edge="1" parent="1" source="aSF58BXrVELDKBnofjXX-90" target="aSF58BXrVELDKBnofjXX-93">
          <mxGeometry relative="1" as="geometry" />
        </mxCell>
        <mxCell id="aSF58BXrVELDKBnofjXX-89" style="rounded=0;orthogonalLoop=1;jettySize=auto;html=1;exitX=0.5;exitY=1;exitDx=0;exitDy=0;entryX=0.5;entryY=0;entryDx=0;entryDy=0;endSize=1;strokeWidth=0.5;" edge="1" parent="1" source="aSF58BXrVELDKBnofjXX-90" target="aSF58BXrVELDKBnofjXX-92">
          <mxGeometry relative="1" as="geometry" />
        </mxCell>
        <mxCell id="aSF58BXrVELDKBnofjXX-90" value="" style="ellipse;whiteSpace=wrap;html=1;aspect=fixed;strokeColor=none;fillColor=#f47a34;" vertex="1" parent="1">
          <mxGeometry x="332.9025857142857" y="711.8571428571429" width="12.380857142857142" height="12.380857142857142" as="geometry" />
        </mxCell>
        <mxCell id="aSF58BXrVELDKBnofjXX-91" value="" style="ellipse;whiteSpace=wrap;html=1;aspect=fixed;strokeColor=none;fillColor=#f47a34;" vertex="1" parent="1">
          <mxGeometry x="308.7599142857143" y="711.8571428571429" width="12.380857142857142" height="12.380857142857142" as="geometry" />
        </mxCell>
        <mxCell id="aSF58BXrVELDKBnofjXX-92" value="" style="ellipse;whiteSpace=wrap;html=1;aspect=fixed;strokeColor=none;fillColor=#f47a34;" vertex="1" parent="1">
          <mxGeometry x="345.28344285714286" y="732.2857142857142" width="12.380857142857142" height="12.380857142857142" as="geometry" />
        </mxCell>
        <mxCell id="aSF58BXrVELDKBnofjXX-93" value="" style="ellipse;whiteSpace=wrap;html=1;aspect=fixed;strokeColor=none;fillColor=#f47a34;" vertex="1" parent="1">
          <mxGeometry x="317.4265142857143" y="732.2857142857142" width="12.380857142857142" height="12.380857142857142" as="geometry" />
        </mxCell>
        <mxCell id="aSF58BXrVELDKBnofjXX-94" style="rounded=0;orthogonalLoop=1;jettySize=auto;html=1;exitX=0.5;exitY=1;exitDx=0;exitDy=0;entryX=0.5;entryY=0;entryDx=0;entryDy=0;endSize=1;strokeWidth=0.5;" edge="1" parent="1" source="aSF58BXrVELDKBnofjXX-96">
          <mxGeometry relative="1" as="geometry">
            <mxPoint x="370.35467857142856" y="701.3333333333334" as="targetPoint" />
          </mxGeometry>
        </mxCell>
        <mxCell id="aSF58BXrVELDKBnofjXX-95" style="rounded=0;orthogonalLoop=1;jettySize=auto;html=1;exitX=0.5;exitY=1;exitDx=0;exitDy=0;entryX=0.5;entryY=0;entryDx=0;entryDy=0;endSize=1;strokeWidth=0.5;" edge="1" parent="1" source="aSF58BXrVELDKBnofjXX-96" target="aSF58BXrVELDKBnofjXX-97">
          <mxGeometry relative="1" as="geometry" />
        </mxCell>
        <mxCell id="aSF58BXrVELDKBnofjXX-96" value="" style="ellipse;whiteSpace=wrap;html=1;aspect=fixed;strokeColor=none;fillColor=#F9BE00;" vertex="1" parent="1">
          <mxGeometry x="371.9022857142857" y="685.2380952380952" width="9.285642857142857" height="9.285642857142857" as="geometry" />
        </mxCell>
        <mxCell id="aSF58BXrVELDKBnofjXX-97" value="" style="ellipse;whiteSpace=wrap;html=1;aspect=fixed;strokeColor=none;fillColor=#F9BE00;" vertex="1" parent="1">
          <mxGeometry x="378.0927142857143" y="701.3333333333334" width="9.285642857142857" height="9.285642857142857" as="geometry" />
        </mxCell>
        <mxCell id="aSF58BXrVELDKBnofjXX-98" value="" style="ellipse;whiteSpace=wrap;html=1;aspect=fixed;strokeColor=none;fillColor=#6cad45;" vertex="1" parent="1">
          <mxGeometry x="363.2356857142857" y="701.3333333333334" width="9.285642857142857" height="9.285642857142857" as="geometry" />
        </mxCell>
        <mxCell id="aSF58BXrVELDKBnofjXX-99" style="rounded=0;orthogonalLoop=1;jettySize=auto;html=1;exitX=0.5;exitY=1;exitDx=0;exitDy=0;entryX=0.5;entryY=0;entryDx=0;entryDy=0;endSize=1;strokeWidth=0.5;" edge="1" parent="1" source="aSF58BXrVELDKBnofjXX-101" target="aSF58BXrVELDKBnofjXX-104">
          <mxGeometry relative="1" as="geometry" />
        </mxCell>
        <mxCell id="aSF58BXrVELDKBnofjXX-100" style="rounded=0;orthogonalLoop=1;jettySize=auto;html=1;exitX=0.5;exitY=1;exitDx=0;exitDy=0;entryX=0.5;entryY=0;entryDx=0;entryDy=0;endSize=1;strokeWidth=0.5;" edge="1" parent="1" source="aSF58BXrVELDKBnofjXX-101" target="aSF58BXrVELDKBnofjXX-102">
          <mxGeometry relative="1" as="geometry" />
        </mxCell>
        <mxCell id="aSF58BXrVELDKBnofjXX-101" value="" style="ellipse;whiteSpace=wrap;html=1;aspect=fixed;strokeColor=none;fillColor=#F9BE00;" vertex="1" parent="1">
          <mxGeometry x="417.09241428571426" y="684" width="9.285642857142857" height="9.285642857142857" as="geometry" />
        </mxCell>
        <mxCell id="aSF58BXrVELDKBnofjXX-102" value="" style="ellipse;whiteSpace=wrap;html=1;aspect=fixed;strokeColor=none;fillColor=#F9BE00;" vertex="1" parent="1">
          <mxGeometry x="423.9018857142857" y="700.7142857142858" width="9.285642857142857" height="9.285642857142857" as="geometry" />
        </mxCell>
        <mxCell id="aSF58BXrVELDKBnofjXX-103" style="rounded=0;orthogonalLoop=1;jettySize=auto;html=1;exitX=0.5;exitY=1;exitDx=0;exitDy=0;entryX=0.5;entryY=0;entryDx=0;entryDy=0;endSize=1;strokeWidth=0.5;" edge="1" parent="1" source="aSF58BXrVELDKBnofjXX-104" target="aSF58BXrVELDKBnofjXX-106">
          <mxGeometry relative="1" as="geometry" />
        </mxCell>
        <mxCell id="aSF58BXrVELDKBnofjXX-104" value="" style="ellipse;whiteSpace=wrap;html=1;aspect=fixed;strokeColor=none;fillColor=#F9BE00;" vertex="1" parent="1">
          <mxGeometry x="410.2829428571428" y="700.7142857142858" width="9.285642857142857" height="9.285642857142857" as="geometry" />
        </mxCell>
        <mxCell id="aSF58BXrVELDKBnofjXX-105" value="" style="ellipse;whiteSpace=wrap;html=1;aspect=fixed;strokeColor=none;fillColor=#6cad45;" vertex="1" parent="1">
          <mxGeometry x="417.7114571428571" y="718.047619047619" width="9.285642857142857" height="9.285642857142857" as="geometry" />
        </mxCell>
        <mxCell id="aSF58BXrVELDKBnofjXX-106" value="" style="ellipse;whiteSpace=wrap;html=1;aspect=fixed;strokeColor=none;fillColor=#F9BE00;" vertex="1" parent="1">
          <mxGeometry x="404.0925142857143" y="718.047619047619" width="9.285642857142857" height="9.285642857142857" as="geometry" />
        </mxCell>
        <mxCell id="aSF58BXrVELDKBnofjXX-107" style="rounded=0;orthogonalLoop=1;jettySize=auto;html=1;exitX=0.5;exitY=1;exitDx=0;exitDy=0;entryX=0.5;entryY=0;entryDx=0;entryDy=0;endSize=1;strokeWidth=0.5;" edge="1" parent="1" source="aSF58BXrVELDKBnofjXX-109" target="aSF58BXrVELDKBnofjXX-113">
          <mxGeometry relative="1" as="geometry" />
        </mxCell>
        <mxCell id="aSF58BXrVELDKBnofjXX-108" style="rounded=0;orthogonalLoop=1;jettySize=auto;html=1;exitX=0.5;exitY=1;exitDx=0;exitDy=0;entryX=0.5;entryY=0;entryDx=0;entryDy=0;endSize=1;strokeWidth=0.5;" edge="1" parent="1" source="aSF58BXrVELDKBnofjXX-109" target="aSF58BXrVELDKBnofjXX-110">
          <mxGeometry relative="1" as="geometry" />
        </mxCell>
        <mxCell id="aSF58BXrVELDKBnofjXX-109" value="" style="ellipse;whiteSpace=wrap;html=1;aspect=fixed;strokeColor=none;fillColor=#F9BE00;" vertex="1" parent="1">
          <mxGeometry x="461.6635" y="683.6904761904761" width="9.285642857142857" height="9.285642857142857" as="geometry" />
        </mxCell>
        <mxCell id="aSF58BXrVELDKBnofjXX-110" value="" style="ellipse;whiteSpace=wrap;html=1;aspect=fixed;strokeColor=none;fillColor=#6cad45;" vertex="1" parent="1">
          <mxGeometry x="468.4729714285714" y="699.1047619047619" width="9.285642857142857" height="9.285642857142857" as="geometry" />
        </mxCell>
        <mxCell id="aSF58BXrVELDKBnofjXX-111" style="rounded=0;orthogonalLoop=1;jettySize=auto;html=1;exitX=0.5;exitY=1;exitDx=0;exitDy=0;entryX=0.5;entryY=0;entryDx=0;entryDy=0;endSize=1;strokeWidth=0.5;" edge="1" parent="1" source="aSF58BXrVELDKBnofjXX-113" target="aSF58BXrVELDKBnofjXX-117">
          <mxGeometry relative="1" as="geometry" />
        </mxCell>
        <mxCell id="aSF58BXrVELDKBnofjXX-112" style="rounded=0;orthogonalLoop=1;jettySize=auto;html=1;exitX=0.5;exitY=1;exitDx=0;exitDy=0;entryX=0.5;entryY=0;entryDx=0;entryDy=0;endSize=1;strokeWidth=0.5;" edge="1" parent="1" source="aSF58BXrVELDKBnofjXX-113" target="aSF58BXrVELDKBnofjXX-116">
          <mxGeometry relative="1" as="geometry" />
        </mxCell>
        <mxCell id="aSF58BXrVELDKBnofjXX-113" value="" style="ellipse;whiteSpace=wrap;html=1;aspect=fixed;strokeColor=none;fillColor=#F9BE00;" vertex="1" parent="1">
          <mxGeometry x="455.4730714285714" y="699.1047619047619" width="9.285642857142857" height="9.285642857142857" as="geometry" />
        </mxCell>
        <mxCell id="aSF58BXrVELDKBnofjXX-114" style="rounded=0;orthogonalLoop=1;jettySize=auto;html=1;exitX=0.5;exitY=1;exitDx=0;exitDy=0;entryX=0.5;entryY=0;entryDx=0;entryDy=0;endSize=1;strokeWidth=0.5;" edge="1" parent="1" source="aSF58BXrVELDKBnofjXX-116" target="aSF58BXrVELDKBnofjXX-119">
          <mxGeometry relative="1" as="geometry" />
        </mxCell>
        <mxCell id="aSF58BXrVELDKBnofjXX-115" style="rounded=0;orthogonalLoop=1;jettySize=auto;html=1;exitX=0.5;exitY=1;exitDx=0;exitDy=0;entryX=0.5;entryY=0;entryDx=0;entryDy=0;endSize=1;strokeWidth=0.5;" edge="1" parent="1" source="aSF58BXrVELDKBnofjXX-116" target="aSF58BXrVELDKBnofjXX-118">
          <mxGeometry relative="1" as="geometry" />
        </mxCell>
        <mxCell id="aSF58BXrVELDKBnofjXX-116" value="" style="ellipse;whiteSpace=wrap;html=1;aspect=fixed;strokeColor=none;fillColor=#F9BE00;" vertex="1" parent="1">
          <mxGeometry x="461.6635" y="715.2619047619048" width="9.285642857142857" height="9.285642857142857" as="geometry" />
        </mxCell>
        <mxCell id="aSF58BXrVELDKBnofjXX-117" value="" style="ellipse;whiteSpace=wrap;html=1;aspect=fixed;strokeColor=none;fillColor=#F9BE00;" vertex="1" parent="1">
          <mxGeometry x="449.28264285714283" y="715.5714285714286" width="9.285642857142857" height="9.285642857142857" as="geometry" />
        </mxCell>
        <mxCell id="aSF58BXrVELDKBnofjXX-118" value="" style="ellipse;whiteSpace=wrap;html=1;aspect=fixed;strokeColor=none;fillColor=#F9BE00;" vertex="1" parent="1">
          <mxGeometry x="468.4729714285714" y="732.2857142857142" width="9.285642857142857" height="9.285642857142857" as="geometry" />
        </mxCell>
        <mxCell id="aSF58BXrVELDKBnofjXX-119" value="" style="ellipse;whiteSpace=wrap;html=1;aspect=fixed;strokeColor=none;fillColor=#F9BE00;" vertex="1" parent="1">
          <mxGeometry x="455.4730714285714" y="732.2857142857142" width="9.285642857142857" height="9.285642857142857" as="geometry" />
        </mxCell>
        <mxCell id="aSF58BXrVELDKBnofjXX-120" value="" style="html=1;shadow=0;dashed=0;align=center;verticalAlign=middle;shape=mxgraph.arrows2.arrow;dy=0.52;dx=9.09;notch=0;aspect=fixed;strokeColor=none;fillColor=#f47a34;" vertex="1" parent="1">
          <mxGeometry x="392.3307" y="697.8666666666667" width="11.761814285714285" height="9.409451428571428" as="geometry" />
        </mxCell>
        <mxCell id="aSF58BXrVELDKBnofjXX-121" value="" style="html=1;shadow=0;dashed=0;align=center;verticalAlign=middle;shape=mxgraph.arrows2.arrow;dy=0.52;dx=9.09;notch=0;aspect=fixed;strokeColor=none;fillColor=#f47a34;" vertex="1" parent="1">
          <mxGeometry x="437.5208285714286" y="697.8666666666667" width="11.761814285714285" height="9.409451428571428" as="geometry" />
        </mxCell>
        <mxCell id="aSF58BXrVELDKBnofjXX-122" style="rounded=0;orthogonalLoop=1;jettySize=auto;html=1;exitX=0.5;exitY=1;exitDx=0;exitDy=0;entryX=0.284;entryY=0.031;entryDx=0;entryDy=0;entryPerimeter=0;endSize=1;strokeWidth=0.5;" edge="1" parent="1" source="aSF58BXrVELDKBnofjXX-104" target="aSF58BXrVELDKBnofjXX-105">
          <mxGeometry relative="1" as="geometry" />
        </mxCell>
        <mxCell id="aSF58BXrVELDKBnofjXX-123" value="" style="rounded=1;whiteSpace=wrap;html=1;fillColor=none;strokeWidth=2;dashed=1;" vertex="1" parent="1">
          <mxGeometry x="50" y="580" width="433.33" height="195" as="geometry" />
        </mxCell>
      </root>
    </mxGraphModel>
  </diagram>
</mxfile>
